<svg width="73" height="79" viewBox="0 0 73 79" fill="none" xmlns="http://www.w3.org/2000/svg">
<g clip-path="url(#clip0_577_971)">
<path d="M2.12012 15.9801H2.02012V16.0801V20.0014V20.0995L2.11822 20.1013L2.12012 20.0014L2.11824 20.1013L2.11841 20.1013L2.11913 20.1014L2.12216 20.1014L2.13446 20.1017L2.18306 20.1032C2.22577 20.1046 2.2886 20.107 2.36868 20.1109C2.52885 20.1188 2.75793 20.1327 3.03292 20.1573C3.58328 20.2063 4.31576 20.2973 5.04713 20.4651C5.78005 20.6331 6.50412 20.8766 7.04267 21.2267C7.58019 21.5761 7.91885 22.0214 7.91885 22.595C7.91885 23.1669 7.85789 23.9147 7.79131 24.7316C7.78626 24.7936 7.78117 24.856 7.77607 24.9188C7.70407 25.8057 7.63073 26.7597 7.62686 27.6369C7.623 28.5119 7.68796 29.3217 7.8986 29.916C8.00421 30.2139 8.14881 30.4646 8.34617 30.6414C8.5457 30.8202 8.7939 30.9185 9.09441 30.9185H63.8188C64.1192 30.9185 64.3674 30.8203 64.567 30.6417C64.7643 30.465 64.9089 30.2145 65.0146 29.9168C65.2252 29.323 65.2902 28.5136 65.2863 27.639C65.2824 26.7622 65.2091 25.8083 65.1371 24.9211C65.132 24.859 65.127 24.7972 65.122 24.7357C65.0554 23.9179 64.9943 23.1686 64.9943 22.595C64.9943 22.0199 65.3331 21.5739 65.8705 21.2243C66.409 20.874 67.1331 20.6307 67.866 20.463C68.5974 20.2956 69.3298 20.2051 69.8802 20.1565C70.1552 20.1322 70.3842 20.1184 70.5444 20.1107C70.6245 20.1068 70.6873 20.1045 70.73 20.1031L70.7786 20.1017L70.7909 20.1014L70.7939 20.1014L70.7947 20.1014L70.7948 20.1013L70.7931 20.0014L70.7949 20.1013L70.8931 20.0996V20.0014V16.0801V15.9801H70.7931H33.8153H2.12012Z" fill="#FEC72F" stroke="black" stroke-width="0.2"/>
<path d="M10.7803 15.9801H10.6803V16.0801V20.0014V20.0989L10.7777 20.1013L10.7777 20.1013L10.7778 20.1013L10.7783 20.1013L10.7805 20.1014L10.7895 20.1017L10.8254 20.1031C10.8571 20.1045 10.9038 20.1069 10.9634 20.1108C11.0826 20.1186 11.2533 20.1325 11.4582 20.1569C11.8685 20.2058 12.4139 20.2964 12.9581 20.4632C13.5034 20.6303 14.0403 20.8718 14.4392 21.2183C14.8355 21.5625 15.0945 22.0088 15.0945 22.595C15.0945 23.1677 15.0489 23.9162 14.9991 24.7321C14.9953 24.7946 14.9914 24.8575 14.9876 24.9208C14.9337 25.8078 14.8789 26.7609 14.8761 27.637C14.8732 28.5113 14.922 29.3177 15.079 29.9083C15.1574 30.2034 15.265 30.4533 15.4138 30.6311C15.5654 30.8123 15.7602 30.9185 16.0012 30.9185H56.9226C57.163 30.9185 57.3573 30.8123 57.5085 30.6313C57.6569 30.4536 57.7642 30.2039 57.8425 29.909C57.9991 29.3189 58.0481 28.5131 58.0457 27.6392C58.0432 26.7634 57.9889 25.8105 57.9354 24.9232C57.9316 24.8591 57.9277 24.7953 57.9239 24.732C57.8746 23.9167 57.8293 23.1685 57.8293 22.595C57.8293 22.0073 58.0884 21.5604 58.4846 21.2159C58.8835 20.8692 59.4204 20.6279 59.9656 20.4611C60.5098 20.2947 61.0553 20.2046 61.4655 20.1562C61.6704 20.132 61.8411 20.1183 61.9603 20.1106C62.0199 20.1068 62.0666 20.1044 62.0982 20.1031L62.1342 20.1017L62.1432 20.1014L62.1454 20.1013L62.1458 20.1013L62.1459 20.1013L62.2435 20.099V20.0014V16.0801V15.9801H62.1435H34.4873H34.4817H10.7803Z" fill="#FEB01B" stroke="black" stroke-width="0.2"/>
<path d="M14.3545 15.9801H14.2545V16.0801V20.0014V20.0985L14.3515 20.1013L14.3515 20.1013L14.3516 20.1013L14.352 20.1013L14.3538 20.1014L14.3614 20.1017L14.392 20.1031C14.4191 20.1045 14.459 20.1068 14.5101 20.1107C14.6122 20.1185 14.7585 20.1324 14.9342 20.1567C15.2861 20.2054 15.7537 20.2957 16.22 20.4618C17.1581 20.7959 18.0525 21.4203 18.0525 22.595C18.0525 23.1683 18.0131 23.9174 17.9702 24.7333C17.9669 24.7957 17.9636 24.8585 17.9603 24.9216C17.9139 25.8087 17.8666 26.7614 17.8642 27.6371C17.8617 28.5111 17.9037 29.316 18.0385 29.9049C18.1058 30.1988 18.198 30.4478 18.3261 30.6254C18.4564 30.8063 18.6287 30.9185 18.8472 30.9185H54.0715C54.2895 30.9185 54.4612 30.8062 54.5911 30.6255C54.7187 30.4481 54.8107 30.1993 54.8778 29.9056C55.0123 29.3172 55.0545 28.5129 55.0524 27.6392C55.0503 26.7639 55.0036 25.8114 54.9576 24.9241C54.9542 24.8598 54.9509 24.7959 54.9476 24.7323C54.9051 23.9174 54.8661 23.1688 54.8661 22.595C54.8661 21.4175 55.7607 20.7931 56.6987 20.4597C57.1649 20.294 57.6324 20.2042 57.9843 20.1559C58.16 20.1318 58.3063 20.1182 58.4085 20.1105C58.4595 20.1067 58.4995 20.1044 58.5265 20.103L58.5572 20.1017L58.5648 20.1014L58.5666 20.1013L58.567 20.1013L58.567 20.1013L58.6642 20.0986V20.0014V16.0801V15.9801H58.5642H34.762H34.7564H14.3545Z" fill="#FF9900" stroke="black" stroke-width="0.2"/>
<path d="M23.749 15.9801H23.649V16.0801V20.0014V20.0964L23.7438 20.1012L23.7438 20.1012L23.7439 20.1012L23.7439 20.1012L23.7446 20.1013L23.7483 20.1015L23.7647 20.1028C23.7794 20.1041 23.8014 20.1064 23.8298 20.1102C23.8865 20.1177 23.9684 20.1312 24.067 20.1549C24.2645 20.2024 24.527 20.2905 24.7887 20.4526C25.3067 20.7734 25.8337 21.3903 25.8337 22.595C25.8337 23.1694 25.8111 23.9196 25.7866 24.735C25.7847 24.7976 25.7828 24.8606 25.7809 24.9239C25.7543 25.811 25.7273 26.7628 25.7259 27.6372C25.7245 28.5106 25.7486 29.3115 25.8251 29.8956C25.8633 30.1866 25.9153 30.431 25.9871 30.6051C26.055 30.7695 26.1611 30.9185 26.3315 30.9185H46.5877C46.7581 30.9185 46.8642 30.7697 46.9321 30.6053C47.0039 30.4313 47.0559 30.1871 47.094 29.8964C47.1706 29.3127 47.1947 28.5124 47.1933 27.6393C47.1919 26.7652 47.1649 25.8136 47.1383 24.9262C47.1364 24.8635 47.1345 24.8011 47.1326 24.7391C47.1081 23.9227 47.0854 23.1712 47.0854 22.595C47.0854 21.3874 47.6125 20.7706 48.1304 20.4506C48.3921 20.2888 48.6545 20.2012 48.852 20.1541C48.9506 20.1306 49.0324 20.1173 49.0892 20.11C49.1175 20.1063 49.1396 20.1041 49.1543 20.1028L49.1706 20.1015L49.1743 20.1013L49.175 20.1012L49.1751 20.1012L49.1751 20.1012L49.1752 20.1012L49.2702 20.0966V20.0014V16.0801V15.9801H49.1702H35.4793H23.749Z" fill="#FEC72F" stroke="black" stroke-width="0.2"/>
<path d="M27.1484 15.9801H27.0484V16.0801V20.0014V20.0946L27.1411 20.1011L27.1412 20.1011L27.1413 20.1011L27.1414 20.1011L27.1415 20.1011L27.1436 20.1013L27.1544 20.1025C27.1643 20.1037 27.1796 20.1058 27.1995 20.1094C27.2393 20.1166 27.2974 20.1296 27.3676 20.1527C27.508 20.1987 27.6963 20.2847 27.885 20.444C28.2588 20.7597 28.6506 21.3777 28.6506 22.595C28.6506 23.1701 28.634 23.921 28.616 24.7365C28.6146 24.7989 28.6132 24.8616 28.6118 24.9247C28.5923 25.8118 28.5725 26.7632 28.5714 27.6372C28.5704 28.5105 28.588 29.3099 28.6439 29.8921C28.6718 30.1823 28.7096 30.4243 28.7615 30.5959C28.7873 30.6811 28.8186 30.7561 28.8586 30.8118C28.8987 30.8675 28.9589 30.9185 29.0419 30.9185H43.8811C43.964 30.9185 44.0243 30.8676 44.0643 30.8119C44.1044 30.7562 44.1357 30.6812 44.1615 30.5961C44.2133 30.4247 44.2512 30.1829 44.2791 29.8929C44.335 29.3111 44.3526 28.5123 44.3516 27.6393C44.3505 26.7657 44.3307 25.8145 44.3112 24.927C44.3098 24.8647 44.3084 24.8026 44.3071 24.741C44.289 23.9243 44.2724 23.1719 44.2724 22.595C44.2724 21.3748 44.6642 20.7569 45.0379 20.442C45.2265 20.283 45.4147 20.1976 45.5551 20.152C45.6253 20.1291 45.6834 20.1163 45.7232 20.1093C45.7431 20.1057 45.7584 20.1036 45.7683 20.1025L45.7791 20.1013L45.7812 20.1011L45.7812 20.1011L45.7813 20.1011L45.7814 20.1011L45.7815 20.1011L45.8745 20.0949V20.0014V16.0801V15.9801H45.7745H35.7473H35.7417H27.1484Z" fill="#FEB01B" stroke="black" stroke-width="0.2"/>
<path d="M63.6928 34V33.9H63.5928H10H9.9V34V77.0613V77.1613H10H63.5928H63.6928V77.0613V34Z" fill="#FEC72F" stroke="black" stroke-width="0.2"/>
<path d="M49.9253 34.1631V34.1131H49.8753H23.457H23.407V34.1631V77.2244V77.2744H23.457H49.8753H49.9253V77.2244V34.1631Z" fill="#FF9900" stroke="black" stroke-width="0.1"/>
<path d="M49.336 34V33.95H49.286H24.3018H24.2518V34V77.0613V77.1113H24.3018H49.286H49.336V77.0613V34Z" fill="#FEC72F" stroke="black" stroke-width="0.1"/>
<path d="M46.05 34V33.95H46H27H26.95V34V65V65.05H27H46H46.05V65V34Z" fill="#FEB01B" stroke="black" stroke-width="0.1"/>
<path d="M41.05 34V33.95H41H32H31.95V34V65V65.05H32H41H41.05V65V34Z" fill="#FF9900" stroke="black" stroke-width="0.1"/>
<path d="M37.1014 34.1631V34.1131H37.0514H36.2783H36.2283V34.1631V66.1216V66.1716H36.2783H37.0514H37.1014V66.1216V34.1631Z" fill="white" stroke="black" stroke-width="0.1"/>
<path d="M27.5115 34.1631V34.1131H27.4615H26.6885H26.6385V34.1631V66.1216V66.1716H26.6885H27.4615H27.5115V66.1216V34.1631Z" fill="white" stroke="black" stroke-width="0.1"/>
<path d="M32.3065 34.1631V34.1131H32.2565H31.4834H31.4334V34.1631V66.1216V66.1716H31.4834H32.2565H32.3065V66.1216V34.1631Z" fill="white" stroke="black" stroke-width="0.1"/>
<path d="M41.8963 34.1631V34.1131H41.8463H41.0732H41.0232V34.1631V66.1216V66.1716H41.0732H41.8463H41.8963V66.1216V34.1631Z" fill="white" stroke="black" stroke-width="0.1"/>
<path d="M46.6922 34.1631V34.1131H46.6422H45.8691H45.8191V34.1631V66.1216V66.1716H45.8691H46.6422H46.6922V66.1216V34.1631Z" fill="white" stroke="black" stroke-width="0.1"/>
<path d="M54.3843 39.5508V39.5008H54.3343H51.6006H51.5506V39.5508V44.7493V44.7993H51.6006H54.3343H54.3843V44.7493V39.5508Z" fill="#FEB01B" stroke="black" stroke-width="0.1"/>
<path d="M53.9698 40.0215V39.9715H53.9198H52.0264H51.9764V40.0215V44.2733V44.3233H52.0264H53.9198H53.9698V44.2733V40.0215Z" fill="white" stroke="black" stroke-width="0.1"/>
<path d="M57.7114 39.5508V39.5008H57.6614H54.9277H54.8777V39.5508V44.7493V44.7993H54.9277H57.6614H57.7114V44.7493V39.5508Z" fill="#FEB01B" stroke="black" stroke-width="0.1"/>
<path d="M57.2911 40.0215V39.9715H57.2411H55.3477H55.2977V40.0215V44.2733V44.3233H55.3477H57.2411H57.2911V44.2733V40.0215Z" fill="white" stroke="black" stroke-width="0.1"/>
<path d="M61.0337 39.5508V39.5008H60.9837H58.25H58.2V39.5508V44.7493V44.7993H58.25H60.9837H61.0337V44.7493V39.5508Z" fill="#FEB01B" stroke="black" stroke-width="0.1"/>
<path d="M60.6133 40.0215V39.9715H60.5633H58.6699H58.6199V40.0215V44.2733V44.3233H58.6699H60.5633H60.6133V44.2733V40.0215Z" fill="white" stroke="black" stroke-width="0.1"/>
<path d="M61.3716 37.1622L61.3591 37.1307H61.3251H51.2642H51.2303L51.2177 37.1622L50.4223 39.1677L50.3951 39.2361H50.4688H62.1206H62.1942L62.1671 39.1677L61.3716 37.1622Z" fill="#FF9900" stroke="black" stroke-width="0.1"/>
<path d="M54.3843 49.751V49.701H54.3343H51.6006H51.5506V49.751V54.9495V54.9995H51.6006H54.3343H54.3843V54.9495V49.751Z" fill="#FEB01B" stroke="black" stroke-width="0.1"/>
<path d="M53.9698 50.2217V50.1717H53.9198H52.0264H51.9764V50.2217V54.4735V54.5235H52.0264H53.9198H53.9698V54.4735V50.2217Z" fill="white" stroke="black" stroke-width="0.1"/>
<path d="M57.7114 49.751V49.701H57.6614H54.9277H54.8777V49.751V54.9495V54.9995H54.9277H57.6614H57.7114V54.9495V49.751Z" fill="#FEB01B" stroke="black" stroke-width="0.1"/>
<path d="M57.2911 50.2217V50.1717H57.2411H55.3477H55.2977V50.2217V54.4735V54.5235H55.3477H57.2411H57.2911V54.4735V50.2217Z" fill="white" stroke="black" stroke-width="0.1"/>
<path d="M58.3 54.8995V49.801H60.9337V54.8995H58.3Z" fill="#FEB01B" stroke="black" stroke-width="0.1"/>
<path d="M60.6133 50.2217V50.1717H60.5633H58.6699H58.6199V50.2217V54.4735V54.5235H58.6699H60.5633H60.6133V54.4735V50.2217Z" fill="white" stroke="black" stroke-width="0.1"/>
<path d="M61.3716 47.3576L61.3591 47.326H61.3251H51.2642H51.2302L51.2177 47.3576L50.4223 49.3686L50.3952 49.437H50.4688H62.1206H62.1941L62.1671 49.3686L61.3716 47.3576Z" fill="#FF9900" stroke="black" stroke-width="0.1"/>
<path d="M54.3843 59.9482V59.8982H54.3343H51.6006H51.5506V59.9482V65.1467V65.1967H51.6006H54.3343H54.3843V65.1467V59.9482Z" fill="#FEB01B" stroke="black" stroke-width="0.1"/>
<path d="M53.9698 60.4238V60.3738H53.9198H52.0264H51.9764V60.4238V64.6756V64.7256H52.0264H53.9198H53.9698V64.6756V60.4238Z" fill="white" stroke="black" stroke-width="0.1"/>
<path d="M57.7114 59.9482V59.8982H57.6614H54.9277H54.8777V59.9482V65.1467V65.1967H54.9277H57.6614H57.7114V65.1467V59.9482Z" fill="#FEB01B" stroke="black" stroke-width="0.1"/>
<path d="M57.2911 60.4248V60.3748H57.2411H55.3477H55.2977V60.4248V64.6766V64.7266H55.3477H57.2411H57.2911V64.6766V60.4248Z" fill="white" stroke="black" stroke-width="0.1"/>
<path d="M61.0337 59.9482V59.8982H60.9837H58.25H58.2V59.9482V65.1467V65.1967H58.25H60.9837H61.0337V65.1467V59.9482Z" fill="#FEB01B" stroke="black" stroke-width="0.1"/>
<path d="M60.6133 60.4238V60.3738H60.5633H58.6699H58.6199V60.4238V64.6756V64.7256H58.6699H60.5633H60.6133V64.6756V60.4238Z" fill="white" stroke="black" stroke-width="0.1"/>
<path d="M61.3716 57.5597L61.3591 57.5281H61.3251H51.2642H51.2303L51.2177 57.5597L50.4223 59.5651L50.3951 59.6336H50.4688H62.1206H62.1942L62.1671 59.5651L61.3716 57.5597Z" fill="#FF9900" stroke="black" stroke-width="0.1"/>
<path d="M54.3843 70.1484V70.0984H54.3343H51.6006H51.5506V70.1484V75.3469V75.3969H51.6006H54.3343H54.3843V75.3469V70.1484Z" fill="#FEB01B" stroke="black" stroke-width="0.1"/>
<path d="M53.9698 70.624V70.574H53.9198H52.0264H51.9764V70.624V74.8758V74.9258H52.0264H53.9198H53.9698V74.8758V70.624Z" fill="white" stroke="black" stroke-width="0.1"/>
<path d="M57.7114 70.1484V70.0984H57.6614H54.9277H54.8777V70.1484V75.3469V75.3969H54.9277H57.6614H57.7114V75.3469V70.1484Z" fill="#FEB01B" stroke="black" stroke-width="0.1"/>
<path d="M57.2911 70.624V70.574H57.2411H55.3477H55.2977V70.624V74.8758V74.9258H55.3477H57.2411H57.2911V74.8758V70.624Z" fill="white" stroke="black" stroke-width="0.1"/>
<path d="M61.0337 70.1484V70.0984H60.9837H58.25H58.2V70.1484V75.3469V75.3969H58.25H60.9837H61.0337V75.3469V70.1484Z" fill="#FEB01B" stroke="black" stroke-width="0.1"/>
<path d="M60.6133 70.624V70.574H60.5633H58.6699H58.6199V70.624V74.8758V74.9258H58.6699H60.5633H60.6133V74.8758V70.624Z" fill="white" stroke="black" stroke-width="0.1"/>
<path d="M61.3716 67.7599L61.3591 67.7283H61.3251H51.2642H51.2303L51.2177 67.7599L50.4223 69.7653L50.3951 69.8338H50.4688H62.1206H62.1942L62.1671 69.7653L61.3716 67.7599Z" fill="#FF9900" stroke="black" stroke-width="0.1"/>
<path d="M15.1314 39.5508V39.5008H15.0814H12.3477H12.2977V39.5508V44.7493V44.7993H12.3477H15.0814H15.1314V44.7493V39.5508Z" fill="#FEB01B" stroke="black" stroke-width="0.1"/>
<path d="M14.711 40.0215V39.9715H14.661H12.7676H12.7176V40.0215V44.2733V44.3233H12.7676H14.661H14.711V44.2733V40.0215Z" fill="white" stroke="black" stroke-width="0.1"/>
<path d="M18.4526 39.5508V39.5008H18.4026H15.6689H15.6189V39.5508V44.7493V44.7993H15.6689H18.4026H18.4526V44.7493V39.5508Z" fill="#FEB01B" stroke="black" stroke-width="0.1"/>
<path d="M18.0323 40.0215V39.9715H17.9823H16.0889H16.0389V40.0215V44.2733V44.3233H16.0889H17.9823H18.0323V44.2733V40.0215Z" fill="white" stroke="black" stroke-width="0.1"/>
<path d="M21.7808 39.5508V39.5008H21.7308H18.9971H18.9471V39.5508V44.7493V44.7993H18.9971H21.7308H21.7808V44.7493V39.5508Z" fill="#FEB01B" stroke="black" stroke-width="0.1"/>
<path d="M21.3604 40.0215V39.9715H21.3104H19.417H19.367V40.0215V44.2733V44.3233H19.417H21.3104H21.3604V44.2733V40.0215Z" fill="white" stroke="black" stroke-width="0.1"/>
<path d="M22.1187 37.1623L22.1062 37.1307H22.0722H12.0057H11.9716L11.9592 37.1623L11.1693 39.1678L11.1424 39.2361H11.2158H22.862H22.9355L22.9086 39.1678L22.1187 37.1623Z" fill="#FF9900" stroke="black" stroke-width="0.1"/>
<path d="M15.1304 49.751V49.701H15.0804H12.3467H12.2967V49.751V54.9495V54.9995H12.3467H15.0804H15.1304V54.9495V49.751Z" fill="#FEB01B" stroke="black" stroke-width="0.1"/>
<path d="M14.71 50.2217V50.1717H14.66H12.7666H12.7166V50.2217V54.4735V54.5235H12.7666H14.66H14.71V54.4735V50.2217Z" fill="white" stroke="black" stroke-width="0.1"/>
<path d="M18.4517 49.751V49.701H18.4017H15.668H15.618V49.751V54.9495V54.9995H15.668H18.4017H18.4517V54.9495V49.751Z" fill="#FEB01B" stroke="black" stroke-width="0.1"/>
<path d="M18.0313 50.2217V50.1717H17.9813H16.0879H16.0379V50.2217V54.4735V54.5235H16.0879H17.9813H18.0313V54.4735V50.2217Z" fill="white" stroke="black" stroke-width="0.1"/>
<path d="M21.7798 49.751V49.701H21.7298H18.9961H18.9461V49.751V54.9495V54.9995H18.9961H21.7298H21.7798V54.9495V49.751Z" fill="#FEB01B" stroke="black" stroke-width="0.1"/>
<path d="M21.3594 50.2217V50.1717H21.3094H19.416H19.366V50.2217V54.4735V54.5235H19.416H21.3094H21.3594V54.4735V50.2217Z" fill="white" stroke="black" stroke-width="0.1"/>
<path d="M22.1187 47.3577L22.1063 47.326H22.0722H12.0057H11.9716L11.9591 47.3577L11.1693 49.3688L11.1425 49.437H11.2158H22.862H22.9354L22.9086 49.3688L22.1187 47.3577Z" fill="#FF9900" stroke="black" stroke-width="0.1"/>
<path d="M15.1304 59.9482V59.8982H15.0804H12.3467H12.2967V59.9482V65.1467V65.1967H12.3467H15.0804H15.1304V65.1467V59.9482Z" fill="#FEB01B" stroke="black" stroke-width="0.1"/>
<path d="M14.71 60.4248V60.3748H14.66H12.7666H12.7166V60.4248V64.6766V64.7266H12.7666H14.66H14.71V64.6766V60.4248Z" fill="white" stroke="black" stroke-width="0.1"/>
<path d="M18.4517 59.9482V59.8982H18.4017H15.668H15.618V59.9482V65.1467V65.1967H15.668H18.4017H18.4517V65.1467V59.9482Z" fill="#FEB01B" stroke="black" stroke-width="0.1"/>
<path d="M18.0313 60.4238V60.3738H17.9813H16.0879H16.0379V60.4238V64.6756V64.7256H16.0879H17.9813H18.0313V64.6756V60.4238Z" fill="white" stroke="black" stroke-width="0.1"/>
<path d="M21.7798 59.9482V59.8982H21.7298H18.9961H18.9461V59.9482V65.1467V65.1967H18.9961H21.7298H21.7798V65.1467V59.9482Z" fill="#FEB01B" stroke="black" stroke-width="0.1"/>
<path d="M21.3594 60.4248V60.3748H21.3094H19.416H19.366V60.4248V64.6766V64.7266H19.416H21.3094H21.3594V64.6766V60.4248Z" fill="white" stroke="black" stroke-width="0.1"/>
<path d="M22.1187 57.5598L22.1062 57.5281H22.0722H12.0057H11.9716L11.9592 57.5598L11.1693 59.5653L11.1424 59.6336H11.2158H22.862H22.9355L22.9086 59.5653L22.1187 57.5598Z" fill="#FF9900" stroke="black" stroke-width="0.1"/>
<path d="M15.1304 70.1484V70.0984H15.0804H12.3467H12.2967V70.1484V75.3469V75.3969H12.3467H15.0804H15.1304V75.3469V70.1484Z" fill="#FEB01B" stroke="black" stroke-width="0.1"/>
<path d="M14.71 70.624V70.574H14.66H12.7666H12.7166V70.624V74.8758V74.9258H12.7666H14.66H14.71V74.8758V70.624Z" fill="white" stroke="black" stroke-width="0.1"/>
<path d="M18.4517 70.1484V70.0984H18.4017H15.668H15.618V70.1484V75.3469V75.3969H15.668H18.4017H18.4517V75.3469V70.1484Z" fill="#FEB01B" stroke="black" stroke-width="0.1"/>
<path d="M18.0313 70.624V70.574H17.9813H16.0879H16.0379V70.624V74.8758V74.9258H16.0879H17.9813H18.0313V74.8758V70.624Z" fill="white" stroke="black" stroke-width="0.1"/>
<path d="M21.7798 70.1484V70.0984H21.7298H18.9961H18.9461V70.1484V75.3469V75.3969H18.9961H21.7298H21.7798V75.3469V70.1484Z" fill="#FEB01B" stroke="black" stroke-width="0.1"/>
<path d="M21.3594 70.624V70.574H21.3094H19.416H19.366V70.624V74.8758V74.9258H19.416H21.3094H21.3594V74.8758V70.624Z" fill="white" stroke="black" stroke-width="0.1"/>
<path d="M22.1187 67.76L22.1062 67.7283H22.0722H12.0057H11.9716L11.9592 67.76L11.1693 69.7655L11.1424 69.8338H11.2158H22.862H22.9355L22.9086 69.7655L22.1187 67.76Z" fill="#FF9900" stroke="black" stroke-width="0.1"/>
<path d="M28.5474 70.1494V70.0994H28.4974H25.7637H25.7137V70.1494V75.3479V75.3979H25.7637H28.4974H28.5474V75.3479V70.1494Z" fill="#FEB01B" stroke="black" stroke-width="0.1"/>
<path d="M28.127 70.625V70.575H28.077H26.1836H26.1336V70.625V74.8768V74.9268H26.1836H28.077H28.127V74.8768V70.625Z" fill="white" stroke="black" stroke-width="0.1"/>
<path d="M31.8696 70.1494V70.0994H31.8196H29.0859H29.0359V70.1494V75.3479V75.3979H29.0859H31.8196H31.8696V75.3479V70.1494Z" fill="#FEB01B" stroke="black" stroke-width="0.1"/>
<path d="M31.4493 70.625V70.575H31.3993H29.5059H29.4559V70.625V74.8768V74.9268H29.5059H31.3993H31.4493V74.8768V70.625Z" fill="white" stroke="black" stroke-width="0.1"/>
<path d="M35.1968 70.1494V70.0994H35.1468H32.4131H32.3631V70.1494V75.3479V75.3979H32.4131H35.1468H35.1968V75.3479V70.1494Z" fill="#FEB01B" stroke="black" stroke-width="0.1"/>
<path d="M34.7764 70.625V70.575H34.7264H32.833H32.783V70.625V74.8768V74.9268H32.833H34.7264H34.7764V74.8768V70.625Z" fill="white" stroke="black" stroke-width="0.1"/>
<path d="M35.5357 67.761L35.5232 67.7293H35.4892H25.4227H25.3886L25.3761 67.761L24.5863 69.7664L24.5594 69.8348H24.6328H36.279H36.3525L36.3256 69.7664L35.5357 67.761Z" fill="#FF9900" stroke="black" stroke-width="0.1"/>
<path d="M40.9673 70.1494V70.0994H40.9173H38.1836H38.1336V70.1494V75.3479V75.3979H38.1836H40.9173H40.9673V75.3479V70.1494Z" fill="#FEB01B" stroke="black" stroke-width="0.1"/>
<path d="M40.5528 70.625V70.575H40.5028H38.6094H38.5594V70.625V74.8768V74.9268H38.6094H40.5028H40.5528V74.8768V70.625Z" fill="white" stroke="black" stroke-width="0.1"/>
<path d="M44.2944 70.1494V70.0994H44.2444H41.5107H41.4607V70.1494V75.3479V75.3979H41.5107H44.2444H44.2944V75.3479V70.1494Z" fill="#FEB01B" stroke="black" stroke-width="0.1"/>
<path d="M43.8741 70.625V70.575H43.8241H41.9307H41.8807V70.625V74.8768V74.9268H41.9307H43.8241H43.8741V74.8768V70.625Z" fill="white" stroke="black" stroke-width="0.1"/>
<path d="M47.6167 70.1494V70.0994H47.5667H44.833H44.783V70.1494V75.3479V75.3979H44.833H47.5667H47.6167V75.3479V70.1494Z" fill="#FEB01B" stroke="black" stroke-width="0.1"/>
<path d="M47.1963 70.625V70.575H47.1463H45.2529H45.2029V70.625V74.8768V74.9268H45.2529H47.1463H47.1963V74.8768V70.625Z" fill="white" stroke="black" stroke-width="0.1"/>
<path d="M47.9556 67.7609L47.9431 67.7293H47.9091H37.8482H37.8142L37.8017 67.7609L37.0063 69.7663L36.9791 69.8348H37.0527H48.7046H48.7782L48.751 69.7663L47.9556 67.7609Z" fill="#FF9900" stroke="black" stroke-width="0.1"/>
<path d="M47.5726 46.2076H46.0541V44.4146V44.3646H46.0041H43.9534V42.5772C43.9534 39.1143 40.6856 36.326 36.6658 36.326C32.646 36.326 29.3783 39.1199 29.3783 42.5772V44.3646H27.3276H27.2776V44.4146V46.2076H25.7646H25.7146V46.2576V66.1161V66.1661H25.7646H47.5726H47.6226V66.1161V46.2576V46.2076H47.5726Z" fill="#FF9900" stroke="black" stroke-width="0.1"/>
<path d="M45.5673 47.5635H44.3401V45.9889V45.9389H44.2901H42.6259V43.5858C42.6259 40.5241 39.9559 38.0516 36.666 38.0516C33.3761 38.0516 30.706 40.5241 30.706 43.5858V45.9389H29.0419H28.9919V45.9889V47.5635H27.7646H27.7146V47.6135V64.391V64.441H27.7646H45.5673H45.6173V64.391V47.6135V47.5635H45.5673Z" fill="white" stroke="black" stroke-width="0.1"/>
<path d="M63.4649 33.4062H9.87207V34.1569H63.4649V33.4062Z" fill="#FEB01B"/>
<path d="M11.5746 28.8691V28.8191H11.5246H9.87207H9.82207V28.8691V33.4066V33.4566H9.87207H11.5246H11.5746V33.4066V28.8691Z" fill="#FF9900" stroke="black" stroke-width="0.1"/>
<path d="M12.3923 30.8184V30.7684H12.3423H11.5244H11.4744V30.8184V33.4064V33.4564H11.5244H12.3423H12.3923V33.4064V30.8184Z" fill="#FEC72F" stroke="black" stroke-width="0.1"/>
<path d="M14.0453 28.8691V28.8191H13.9953H12.3428H12.2928V28.8691V33.4066V33.4566H12.3428H13.9953H14.0453V33.4066V28.8691Z" fill="#FF9900" stroke="black" stroke-width="0.1"/>
<path d="M14.8688 30.8184V30.7684H14.8188H14.001H13.951V30.8184V33.4064V33.4564H14.001H14.8188H14.8688V33.4064V30.8184Z" fill="#FEC72F" stroke="black" stroke-width="0.1"/>
<path d="M16.5209 28.8691V28.8191H16.4709H14.8184H14.7684V28.8691V33.4066V33.4566H14.8184H16.4709H16.5209V33.4066V28.8691Z" fill="#FF9900" stroke="black" stroke-width="0.1"/>
<path d="M17.3386 30.8184V30.7684H17.2886H16.4707H16.4207V30.8184V33.4064V33.4564H16.4707H17.2886H17.3386V33.4064V30.8184Z" fill="#FEC72F" stroke="black" stroke-width="0.1"/>
<path d="M18.9916 28.8691V28.8191H18.9416H17.2891H17.2391V28.8691V33.4066V33.4566H17.2891H18.9416H18.9916V33.4066V28.8691Z" fill="#FF9900" stroke="black" stroke-width="0.1"/>
<path d="M19.8151 30.8184V30.7684H19.7651H18.9473H18.8973V30.8184V33.4064V33.4564H18.9473H19.7651H19.8151V33.4064V30.8184Z" fill="#FEC72F" stroke="black" stroke-width="0.1"/>
<path d="M21.4672 28.8691V28.8191H21.4172H19.7646H19.7146V28.8691V33.4066V33.4566H19.7646H21.4172H21.4672V33.4066V28.8691Z" fill="#FF9900" stroke="black" stroke-width="0.1"/>
<path d="M22.2858 30.8184V30.7684H22.2358H21.418H21.368V30.8184V33.4064V33.4564H21.418H22.2358H22.2858V33.4064V30.8184Z" fill="#FEC72F" stroke="black" stroke-width="0.1"/>
<path d="M23.9379 28.8691V28.8191H23.8879H22.2354H22.1854V28.8691V33.4066V33.4566H22.2354H23.8879H23.9379V33.4066V28.8691Z" fill="#FF9900" stroke="black" stroke-width="0.1"/>
<path d="M24.7614 30.8184V30.7684H24.7114H23.8936H23.8436V30.8184V33.4064V33.4564H23.8936H24.7114H24.7614V33.4064V30.8184Z" fill="#FEC72F" stroke="black" stroke-width="0.1"/>
<path d="M26.4145 28.8691V28.8191H26.3645H24.7119H24.6619V28.8691V33.4066V33.4566H24.7119H26.3645H26.4145V33.4066V28.8691Z" fill="#FF9900" stroke="black" stroke-width="0.1"/>
<path d="M27.2321 30.8184V30.7684H27.1821H26.3643H26.3143V30.8184V33.4064V33.4564H26.3643H27.1821H27.2321V33.4064V30.8184Z" fill="#FEC72F" stroke="black" stroke-width="0.1"/>
<path d="M28.8842 28.8691V28.8191H28.8342H27.1816H27.1316V28.8691V33.4066V33.4566H27.1816H28.8342H28.8842V33.4066V28.8691Z" fill="#FF9900" stroke="black" stroke-width="0.1"/>
<path d="M29.7077 30.8184V30.7684H29.6577H28.8398H28.7898V30.8184V33.4064V33.4564H28.8398H29.6577H29.7077V33.4064V30.8184Z" fill="#FEC72F" stroke="black" stroke-width="0.1"/>
<path d="M31.3607 28.8691V28.8191H31.3107H29.6582H29.6082V28.8691V33.4066V33.4566H29.6582H31.3107H31.3607V33.4066V28.8691Z" fill="#FF9900" stroke="black" stroke-width="0.1"/>
<path d="M32.1774 30.8184V30.7684H32.1274H31.3096H31.2596V30.8184V33.4064V33.4564H31.3096H32.1274H32.1774V33.4064V30.8184Z" fill="#FEC72F" stroke="black" stroke-width="0.1"/>
<path d="M33.8314 28.8691V28.8191H33.7814H32.1289H32.0789V28.8691V33.4066V33.4566H32.1289H33.7814H33.8314V33.4066V28.8691Z" fill="#FF9900" stroke="black" stroke-width="0.1"/>
<path d="M34.654 30.8184V30.7684H34.604H33.7861H33.7361V30.8184V33.4064V33.4564H33.7861H34.604H34.654V33.4064V30.8184Z" fill="#FEC72F" stroke="black" stroke-width="0.1"/>
<path d="M36.307 28.8691V28.8191H36.257H34.6045H34.5545V28.8691V33.4066V33.4566H34.6045H36.257H36.307V33.4066V28.8691Z" fill="#FF9900" stroke="black" stroke-width="0.1"/>
<path d="M37.1247 30.8184V30.7684H37.0747H36.2568H36.2068V30.8184V33.4064V33.4564H36.2568H37.0747H37.1247V33.4064V30.8184Z" fill="#FEC72F" stroke="black" stroke-width="0.1"/>
<path d="M38.7768 28.8691V28.8191H38.7268H37.0742H37.0242V28.8691V33.4066V33.4566H37.0742H38.7268H38.7768V33.4066V28.8691Z" fill="#FF9900" stroke="black" stroke-width="0.1"/>
<path d="M39.6003 30.8184V30.7684H39.5503H38.7324H38.6824V30.8184V33.4064V33.4564H38.7324H39.5503H39.6003V33.4064V30.8184Z" fill="#FEC72F" stroke="black" stroke-width="0.1"/>
<path d="M41.2533 28.8691V28.8191H41.2033H39.5508H39.5008V28.8691V33.4066V33.4566H39.5508H41.2033H41.2533V33.4066V28.8691Z" fill="#FF9900" stroke="black" stroke-width="0.1"/>
<path d="M42.071 30.8184V30.7684H42.021H41.2031H41.1531V30.8184V33.4064V33.4564H41.2031H42.021H42.071V33.4064V30.8184Z" fill="#FEC72F" stroke="black" stroke-width="0.1"/>
<path d="M43.723 28.8691V28.8191H43.673H42.0205H41.9705V28.8691V33.4066V33.4566H42.0205H43.673H43.723V33.4066V28.8691Z" fill="#FF9900" stroke="black" stroke-width="0.1"/>
<path d="M44.5466 30.8184V30.7684H44.4966H43.6787H43.6287V30.8184V33.4064V33.4564H43.6787H44.4966H44.5466V33.4064V30.8184Z" fill="#FEC72F" stroke="black" stroke-width="0.1"/>
<path d="M46.1996 28.8691V28.8191H46.1496H44.4971H44.4471V28.8691V33.4066V33.4566H44.4971H46.1496H46.1996V33.4066V28.8691Z" fill="#FF9900" stroke="black" stroke-width="0.1"/>
<path d="M47.0173 30.8184V30.7684H46.9673H46.1494H46.0994V30.8184V33.4064V33.4564H46.1494H46.9673H47.0173V33.4064V30.8184Z" fill="#FEC72F" stroke="black" stroke-width="0.1"/>
<path d="M48.6703 28.8691V28.8191H48.6203H46.9678H46.9178V28.8691V33.4066V33.4566H46.9678H48.6203H48.6703V33.4066V28.8691Z" fill="#FF9900" stroke="black" stroke-width="0.1"/>
<path d="M49.4929 30.8184V30.7684H49.4429H48.625H48.575V30.8184V33.4064V33.4564H48.625H49.4429H49.4929V33.4064V30.8184Z" fill="#FEC72F" stroke="black" stroke-width="0.1"/>
<path d="M51.1459 28.8691V28.8191H51.0959H49.4434H49.3934V28.8691V33.4066V33.4566H49.4434H51.0959H51.1459V33.4066V28.8691Z" fill="#FF9900" stroke="black" stroke-width="0.1"/>
<path d="M51.9636 30.8184V30.7684H51.9136H51.0957H51.0457V30.8184V33.4064V33.4564H51.0957H51.9136H51.9636V33.4064V30.8184Z" fill="#FEC72F" stroke="black" stroke-width="0.1"/>
<path d="M53.6166 28.8691V28.8191H53.5666H51.9141H51.8641V28.8691V33.4066V33.4566H51.9141H53.5666H53.6166V33.4066V28.8691Z" fill="#FF9900" stroke="black" stroke-width="0.1"/>
<path d="M54.4401 30.8184V30.7684H54.3901H53.5723H53.5223V30.8184V33.4064V33.4564H53.5723H54.3901H54.4401V33.4064V30.8184Z" fill="#FEC72F" stroke="black" stroke-width="0.1"/>
<path d="M56.0922 28.8691V28.8191H56.0422H54.3896H54.3396V28.8691V33.4066V33.4566H54.3896H56.0422H56.0922V33.4066V28.8691Z" fill="#FF9900" stroke="black" stroke-width="0.1"/>
<path d="M56.9099 30.8184V30.7684H56.8599H56.042H55.992V30.8184V33.4064V33.4564H56.042H56.8599H56.9099V33.4064V30.8184Z" fill="#FEC72F" stroke="black" stroke-width="0.1"/>
<path d="M58.5629 28.8691V28.8191H58.5129H56.8604H56.8104V28.8691V33.4066V33.4566H56.8604H58.5129H58.5629V33.4066V28.8691Z" fill="#FF9900" stroke="black" stroke-width="0.1"/>
<path d="M59.3864 30.8184V30.7684H59.3364H58.5186H58.4686V30.8184V33.4064V33.4564H58.5186H59.3364H59.3864V33.4064V30.8184Z" fill="#FEC72F" stroke="black" stroke-width="0.1"/>
<path d="M61.0385 28.8691V28.8191H60.9885H59.3359H59.2859V28.8691V33.4066V33.4566H59.3359H60.9885H61.0385V33.4066V28.8691Z" fill="#FF9900" stroke="black" stroke-width="0.1"/>
<path d="M61.8571 30.8184V30.7684H61.8071H60.9893H60.9393V30.8184V33.4064V33.4564H60.9893H61.8071H61.8571V33.4064V30.8184Z" fill="#FEC72F" stroke="black" stroke-width="0.1"/>
<path d="M63.5092 28.8691V28.8191H63.4592H61.8066H61.7566V28.8691V33.4066V33.4566H61.8066H63.4592H63.5092V33.4066V28.8691Z" fill="#FF9900" stroke="black" stroke-width="0.1"/>
<path d="M64.0201 77.2188H9.3125V79.0001H64.0201V77.2188Z" fill="white"/>
<path d="M72.0193 14.3096V14.2096H71.9193H1H0.9V14.3096V16.0798V16.1798H1H71.9193H72.0193V16.0798V14.3096Z" fill="white" stroke="black" stroke-width="0.2"/>
<path d="M47.5766 0.912234L47.5542 0.9H47.5287H25.3846H25.3591L25.3367 0.912238L0.968665 14.2222L1.0166 14.41H71.9023L71.9502 14.2222L47.5766 0.912234Z" fill="#FF9900" stroke="black" stroke-width="0.2"/>
<path d="M2.8541 14.31V14.41H2.9541H4.07447H4.17447V14.31V12.6406V12.4722L4.02661 12.5528L2.90625 13.1634L2.8541 13.1918V13.2512V14.31Z" fill="#FEB01B" stroke="black" stroke-width="0.2"/>
<path d="M8.56607 10.2432V10.0748L8.41822 10.1554L7.29785 10.766L7.2457 10.7944V10.8538V14.3101V14.4101H7.3457H8.46607H8.56607V14.3101V10.2432Z" fill="#FEB01B" stroke="black" stroke-width="0.2"/>
<path d="M12.9579 7.83984V7.67105L12.8099 7.75214L11.6951 8.36274L11.6432 8.3912V8.45044V14.31V14.41H11.7432H12.8579H12.9579V14.31V7.83984Z" fill="#FEB01B" stroke="black" stroke-width="0.2"/>
<path d="M17.3505 5.44238V5.27359L17.2025 5.35468L16.0877 5.96528L16.0357 5.99374V6.05298V14.3101V14.4101H16.1357H17.2505H17.3505V14.3101V5.44238Z" fill="#FEB01B" stroke="black" stroke-width="0.2"/>
<path d="M21.7421 3.04492V2.87613L21.5941 2.95722L20.4793 3.56782L20.4273 3.59628V3.65552V14.3102V14.4102H20.5273H21.6421H21.7421V14.3102V3.04492Z" fill="#FEB01B" stroke="black" stroke-width="0.2"/>
<path d="M26.1337 1V0.9H26.0337H25.3839H25.358L25.3354 0.912535L24.8705 1.17022L24.8189 1.19878V1.25768V14.31V14.41H24.9189H26.0337H26.1337V14.31V1Z" fill="#FEB01B" stroke="black" stroke-width="0.2"/>
<path d="M30.5309 1V0.9H30.4309H29.3105H29.2105V1V14.31V14.41H29.3105H30.4309H30.5309V14.31V1Z" fill="#FEB01B" stroke="black" stroke-width="0.2"/>
<path d="M34.9225 1V0.9H34.8225H33.7021H33.6021V1V14.31V14.41H33.7021H34.8225H34.9225V14.31V1Z" fill="#FEB01B" stroke="black" stroke-width="0.2"/>
<path d="M39.3095 1V0.9H39.2095H38.0947H37.9947V1V14.31V14.41H38.0947H39.2095H39.3095V14.31V1Z" fill="#FEB01B" stroke="black" stroke-width="0.2"/>
<path d="M43.7011 1V0.9H43.6011H42.4863H42.3863V1V14.31V14.41H42.4863H43.6011H43.7011V14.31V1Z" fill="#FEB01B" stroke="black" stroke-width="0.2"/>
<path d="M48.0983 1.25768V1.19843L48.0463 1.16997L47.5758 0.91229L47.5533 0.9H47.5277H46.8779H46.7779V1V14.31V14.41H46.8779H47.9983H48.0983V14.31V1.25768Z" fill="#FEB01B" stroke="black" stroke-width="0.2"/>
<path d="M52.4899 3.65552V3.59614L52.4378 3.56772L51.3174 2.95712L51.1695 2.87653V3.04492V14.3102V14.4102H51.2695H52.3899H52.4899V14.3102V3.65552Z" fill="#FEB01B" stroke="black" stroke-width="0.2"/>
<path d="M56.8818 6.05298V5.99374L56.8298 5.96528L55.715 5.35468L55.567 5.27359V5.44238V14.3101V14.4101H55.667H56.7818H56.8818V14.3101V6.05298Z" fill="#FEB01B" stroke="black" stroke-width="0.2"/>
<path d="M61.2743 8.45044V8.3912L61.2224 8.36274L60.1076 7.75214L59.9596 7.67105V7.83984V14.31V14.41H60.0596H61.1743H61.2743V14.31V8.45044Z" fill="#FEB01B" stroke="black" stroke-width="0.2"/>
<path d="M65.6659 10.8538V10.7945L65.614 10.7661L64.4992 10.1555L64.3512 10.0744V10.2432V14.3101V14.4101H64.4512H65.5659H65.6659V14.3101V10.8538Z" fill="#FEB01B" stroke="black" stroke-width="0.2"/>
<path d="M70.0575 13.2512V13.192L70.0056 13.1635L68.8908 12.5529L68.7428 12.4718V12.6406V14.31V14.41H68.8428H69.9575H70.0575V14.31V13.2512Z" fill="#FEB01B" stroke="black" stroke-width="0.2"/>
</g>
<defs>
<clipPath id="clip0_577_971">
<rect width="73" height="79" fill="white"/>
</clipPath>
</defs>
</svg>
