<svg width="116" height="77" viewBox="0 0 116 77" fill="none" xmlns="http://www.w3.org/2000/svg">
<g clip-path="url(#clip0_510_1490)">
<path d="M66.75 16.5H48.75C48.75 16.5 49.6021 12.0503 51.75 10C53.8979 7.94975 57.75 6 57.75 6C57.75 6 61.9069 8.44975 64.25 10.5C66.5931 12.5503 66.75 16.5 66.75 16.5Z" fill="#FEB01B"/>
<rect x="-0.25" y="40" width="117" height="2" fill="#FEC72F"/>
<rect x="-0.25" y="34" width="117" height="6" fill="#FF9900"/>
<path d="M73.75 17H41.75L41.25 35H73.75V17Z" fill="#FEB01B"/>
<path d="M43.75 27C43.75 27 45.4498 24 47.25 24C49.0502 24 50.75 27 50.75 27V35H43.75V27Z" fill="white"/>
<path d="M64.75 27C64.75 27 66.4498 24 68.25 24C70.0502 24 71.75 27 71.75 27V35H64.75V27Z" fill="white"/>
<path d="M53.75 25.5455C53.75 25.5455 53.75 22 57.75 22C61.75 22 61.75 25.5455 61.75 25.5455V35H53.75V25.5455Z" fill="white"/>
<path d="M41.75 21.5L39.75 19.5L49.75 19C49.75 19 52.25 15 57.75 15C63.25 15 65.75 19 65.75 19L75.75 19.5L73.75 21.5H65.25C65.25 21.5 63.25 18 57.75 18C52.25 18 49.75 21.5 49.75 21.5H41.75Z" fill="#FEC72F"/>
<rect x="42.75" y="9" width="6" height="8" fill="#FEC72F"/>
<rect x="66.75" y="9" width="6" height="8" fill="#FEC72F"/>
<path d="M48.75 7H42.25C42.25 7 42.019 4.67131 42.75 3.5C43.4955 2.3055 45.75 1.5 45.75 1.5C45.75 1.5 47.6479 2.75746 48.25 4C48.7679 5.06887 48.75 7 48.75 7Z" fill="#FEB01B"/>
<path d="M73.75 7H67.25C67.25 7 67.019 4.67131 67.75 3.5C68.4955 2.3055 70.75 1.5 70.75 1.5C70.75 1.5 72.6479 2.75746 73.25 4C73.7679 5.06887 73.75 7 73.75 7Z" fill="#FEB01B"/>
<path d="M51.25 16.5L42.25 17H41.75V19H49.75L51.25 16.5Z" fill="#FF9900"/>
<path d="M64.75 17L73.75 16.5L74.25 17.5V19.5H66.25L64.75 17Z" fill="#FF9900"/>
<path d="M73.75 7.5H65.75H65.25L66.25 9H72.75L73.75 7.5Z" fill="#FF9900"/>
<path d="M49.75 7.5H41.75H41.25L42.25 9.5H48.25L49.75 7.5Z" fill="#FF9900"/>
<rect x="7.75" y="19" width="7" height="2" fill="#FF9900"/>
<rect x="25.75" y="19" width="7" height="2" fill="#FF9900"/>
<rect x="82.75" y="19" width="7" height="2" fill="#FF9900"/>
<rect x="100.75" y="19" width="7" height="2" fill="#FF9900"/>
<path d="M74.25 21H115.75V35H73.75L74.25 21Z" fill="#FEB01B"/>
<path d="M88.7502 19H83.75C83.75 19 83.262 16.9763 83.7502 16C84.2383 15.0237 85.7502 14 85.7502 14C85.7502 14 87.6644 15.0237 88.2502 16C88.8359 16.9763 88.7502 19 88.7502 19Z" fill="#FEB01B"/>
<path d="M106.75 19H102.25C102.25 19 101.762 16.9763 102.25 16C102.738 15.0237 104.75 14 104.75 14C104.75 14 105.665 15.0237 106.25 16C106.836 16.9763 106.75 19 106.75 19Z" fill="#FEB01B"/>
<path d="M0.509766 76.5596H114.688" stroke="#282727" stroke-width="0.880974" stroke-linecap="round" stroke-linejoin="round"/>
<rect x="-1.25" y="68" width="121" height="9" fill="#FF9900"/>
<rect x="-0.25" y="42" width="116" height="26" fill="white"/>
<rect x="-3.25" y="43" width="131" height="6" fill="#FEC72F"/>
<path d="M116.25 42L-0.25 42.5H-1.75L-2.25 45.5C-2.25 45.5 0.45599 44.6495 2.25 44.5C8.25 44 8.75 49.5 8.75 49.5V66.8402H11.25V49.5C11.25 49.5 12.2251 44.5 17.25 44.5C23.25 44.5 24.25 49.5 24.25 49.5V68.5H26.25V49.5C26.25 49.5 27.25 44.5 32.75 44.5C37.75 44.5 39.4576 49.5 39.4576 49.5V68.5L43.25 68V49.5C43.25 49.5 43.25 45 46.75 45.5C50.25 46 50.25 49.5 50.25 49.5V68.5H51.75V49.5C51.75 49.5 52.75 43.8992 57.75 44C62.75 44.1008 63.5124 49.5 63.5124 49.5V68.5H65.25V49.5C65.25 49.5 66.25 45.5 69.25 45.5C71.75 45.5 72.25 49.5 72.25 49.5V68.5H75.75V52C75.75 52 75.75 44.5 82.75 44.5C89.25 44.5 89.25 52 89.25 52V68.5H91.25V52C91.25 52 91.25 44.5 97.75 44.5C104.75 44.5 104.75 52 104.75 52V67H106.25V52C106.25 52 106.884 46.9898 109.25 45.5C111.563 44.0433 116.75 45 116.75 45L116.25 42Z" fill="#FEB01B"/>
<rect x="9.75" y="67" width="2" height="1.5" fill="#FEC72F"/>
<rect x="26.75" y="67" width="2" height="1.5" fill="#FEC72F"/>
<rect x="42.75" y="67" width="2" height="1.5" fill="#FEC72F"/>
<rect x="70.75" y="67" width="2" height="1.5" fill="#FEC72F"/>
<rect x="86.75" y="67" width="2" height="1.5" fill="#FEC72F"/>
<rect x="103.75" y="67" width="2" height="1.5" fill="#FEC72F"/>
<path d="M-0.641602 68.4932H116.001" stroke="#282727" stroke-width="0.899986" stroke-linecap="round" stroke-linejoin="round"/>
<path d="M70.2773 77.1161V67.0459H72.3509V77.1161" stroke="#282727" stroke-width="0.899986" stroke-linecap="round" stroke-linejoin="round"/>
<path d="M87.126 77.1161V67.0459H89.1995V77.1161" stroke="#282727" stroke-width="0.899986" stroke-linecap="round" stroke-linejoin="round"/>
<path d="M103.973 77.1161V67.0459H106.047V77.1161" stroke="#282727" stroke-width="0.899986" stroke-linecap="round" stroke-linejoin="round"/>
<path d="M57.7012 68.4932V77.1162" stroke="#282727" stroke-width="0.899986" stroke-linecap="round" stroke-linejoin="round"/>
<path d="M60.2549 68.4932V77.1162" stroke="#282727" stroke-width="0.899986" stroke-linecap="round" stroke-linejoin="round"/>
<path d="M62.8096 68.4932V77.1162" stroke="#282727" stroke-width="0.899986" stroke-linecap="round" stroke-linejoin="round"/>
<path d="M65.3638 77.1163V49.4207C65.3638 49.4207 65.44 45.6191 69.0687 45.6191C72.6975 45.6191 72.3519 49.4207 72.3519 49.4207V67.046" stroke="#282727" stroke-width="0.899986" stroke-linecap="round" stroke-linejoin="round"/>
<path d="M67.9175 68.4932V77.1162" stroke="#282727" stroke-width="0.899986" stroke-linecap="round" stroke-linejoin="round"/>
<path d="M74.9678 68.4932V77.1162" stroke="#282727" stroke-width="0.899986" stroke-linecap="round" stroke-linejoin="round"/>
<path d="M77.521 68.4932V77.1162" stroke="#282727" stroke-width="0.899986" stroke-linecap="round" stroke-linejoin="round"/>
<path d="M80.0757 68.4932V77.1162" stroke="#282727" stroke-width="0.899986" stroke-linecap="round" stroke-linejoin="round"/>
<path d="M82.6294 68.4932V77.1162" stroke="#282727" stroke-width="0.899986" stroke-linecap="round" stroke-linejoin="round"/>
<path d="M85.1836 68.4932V77.1162" stroke="#282727" stroke-width="0.899986" stroke-linecap="round" stroke-linejoin="round"/>
<path d="M108.466 68.4932V77.1162" stroke="#282727" stroke-width="0.899986" stroke-linecap="round" stroke-linejoin="round"/>
<path d="M110.928 68.4932V77.1162" stroke="#282727" stroke-width="0.899986" stroke-linecap="round" stroke-linejoin="round"/>
<path d="M113.391 68.4932V77.1162" stroke="#282727" stroke-width="0.899986" stroke-linecap="round" stroke-linejoin="round"/>
<path d="M115.853 68.4932V77.1162" stroke="#282727" stroke-width="0.899986" stroke-linecap="round" stroke-linejoin="round"/>
<path d="M91.6182 68.4932V77.1162" stroke="#282727" stroke-width="0.899986" stroke-linecap="round" stroke-linejoin="round"/>
<path d="M94.21 68.4932V77.1162" stroke="#282727" stroke-width="0.899986" stroke-linecap="round" stroke-linejoin="round"/>
<path d="M96.8022 68.4932V77.1162" stroke="#282727" stroke-width="0.899986" stroke-linecap="round" stroke-linejoin="round"/>
<path d="M99.3936 68.4932V77.1162" stroke="#282727" stroke-width="0.899986" stroke-linecap="round" stroke-linejoin="round"/>
<path d="M101.986 68.4932V77.1162" stroke="#282727" stroke-width="0.899986" stroke-linecap="round" stroke-linejoin="round"/>
<path d="M57.6802 40.25H115.853" stroke="#282727" stroke-width="0.899986" stroke-linecap="round" stroke-linejoin="round"/>
<path d="M57.6802 42.249H115.853" stroke="#282727" stroke-width="0.899986" stroke-linecap="round" stroke-linejoin="round"/>
<path d="M57.6802 34.7314H116.002" stroke="#282727" stroke-width="0.899986" stroke-linecap="round" stroke-linejoin="round"/>
<path d="M57.6802 44.0635C57.6802 44.0635 63.5385 44.4091 63.5385 49.593V68.4927" stroke="#282727" stroke-width="0.899986" stroke-linecap="round" stroke-linejoin="round"/>
<path d="M75.9807 68.4917V51.1472C75.9807 51.1472 75.7179 44.2803 82.8476 44.2803" stroke="#282727" stroke-width="0.899986" stroke-linecap="round" stroke-linejoin="round"/>
<path d="M89.2795 68.4917V51.1472C89.2795 51.1472 89.5423 44.2803 82.4126 44.2803" stroke="#282727" stroke-width="0.899986" stroke-linecap="round" stroke-linejoin="round"/>
<path d="M91.1922 68.4917V51.1472C91.1922 51.1472 90.9294 44.2803 98.0591 44.2803" stroke="#282727" stroke-width="0.899986" stroke-linecap="round" stroke-linejoin="round"/>
<path d="M104.491 67.0445V51.1472C104.491 51.1472 104.754 44.2803 97.6245 44.2803" stroke="#282727" stroke-width="0.899986" stroke-linecap="round" stroke-linejoin="round"/>
<path d="M106.404 68.4917V51.1472C106.404 51.1472 106.141 44.2803 113.271 44.2803" stroke="#282727" stroke-width="0.899986" stroke-linecap="round" stroke-linejoin="round"/>
<path d="M115.853 44.8017C115.034 44.4759 114.04 44.2803 112.836 44.2803" stroke="#282727" stroke-width="0.899986" stroke-linecap="round" stroke-linejoin="round"/>
<path d="M57.6802 17.7978C57.6802 17.7978 62.3499 16.9338 65.3631 21.6857H73.9063V34.7319" stroke="#282727" stroke-width="0.899986" stroke-linecap="round" stroke-linejoin="round"/>
<path d="M57.6802 14.8604C57.6802 14.8604 63.7281 14.8604 65.7933 19.1803H75.9787L73.9063 21.6858" stroke="#282727" stroke-width="0.899986" stroke-linecap="round" stroke-linejoin="round"/>
<path d="M73.9069 19.1789V16.5869H63.5391" stroke="#282727" stroke-width="0.899986" stroke-linecap="round" stroke-linejoin="round"/>
<path d="M82.8926 34.7326V28.6331C82.8926 28.6331 83.3954 26.2344 85.0951 26.2344C86.7949 26.2344 87.4747 28.6331 87.4747 28.6331V34.7326" fill="white"/>
<path d="M66.8294 16.5887C65.6277 7.60325 57.6802 6.39366 57.6802 6.39366V3.62891" stroke="#282727" stroke-width="0.899986" stroke-linecap="round" stroke-linejoin="round"/>
<path d="M89.5903 34.7326V28.6331C89.5903 28.6331 90.0931 26.2344 91.7929 26.2344C93.4927 26.2344 94.1725 28.6331 94.1725 28.6331V34.7326" fill="white"/>
<path d="M59.0459 8.12109C59.0459 8.12109 64.7044 12.3024 64.7482 16.5882" stroke="#282727" stroke-width="0.899986" stroke-linecap="round" stroke-linejoin="round"/>
<path d="M96.2881 34.7326V28.6331C96.2881 28.6331 96.7909 26.2344 98.4907 26.2344C100.19 26.2344 100.87 28.6331 100.87 28.6331V34.7326" fill="white"/>
<path d="M59.0459 10.1074C59.0459 10.1074 62.0363 13.0294 61.8971 15.7311" stroke="#282727" stroke-width="0.899986" stroke-linecap="round" stroke-linejoin="round"/>
<path d="M102.986 34.7326V28.6331C102.986 28.6331 103.489 26.2344 105.188 26.2344C106.888 26.2344 107.568 28.6331 107.568 28.6331V34.7326" fill="white"/>
<path d="M57.6802 21.6855C57.6802 21.6855 61.8969 21.7719 61.8969 25.2279V34.7317" stroke="#282727" stroke-width="0.899986" stroke-linecap="round" stroke-linejoin="round"/>
<path d="M109.683 34.7326V28.6331C109.683 28.6331 110.186 26.2344 111.886 26.2344C113.585 26.2344 114.265 28.6331 114.265 28.6331V34.7326" fill="white"/>
<path d="M64.7041 34.732V27.0425C64.7041 27.0425 65.4715 24.0186 68.0635 24.0186C70.6554 24.0186 71.6922 27.0425 71.6922 27.0425V34.732" stroke="#282727" stroke-width="0.899986" stroke-linecap="round" stroke-linejoin="round"/>
<path d="M76.1948 34.7326V28.6331C76.1948 28.6331 76.6976 26.2344 78.3974 26.2344C80.0972 26.2344 80.777 28.6331 80.777 28.6331V34.7326" fill="white"/>
<path d="M76.1948 34.7326V28.6331C76.1948 28.6331 76.6976 26.2344 78.3974 26.2344C80.0972 26.2344 80.777 28.6331 80.777 28.6331V34.7326" stroke="#282727" stroke-width="0.899986" stroke-linecap="round" stroke-linejoin="round"/>
<path d="M76.1948 34.7326V28.6331C76.1948 28.6331 76.6976 26.2344 78.3974 26.2344C80.0972 26.2344 80.777 28.6331 80.777 28.6331V34.7326" stroke="#282727" stroke-width="0.899986" stroke-linecap="round" stroke-linejoin="round"/>
<path d="M82.8926 34.7326V28.6331C82.8926 28.6331 83.3954 26.2344 85.0951 26.2344C86.7949 26.2344 87.4747 28.6331 87.4747 28.6331V34.7326" stroke="#282727" stroke-width="0.899986" stroke-linecap="round" stroke-linejoin="round"/>
<path d="M89.5903 34.7326V28.6331C89.5903 28.6331 90.0931 26.2344 91.7929 26.2344C93.4927 26.2344 94.1725 28.6331 94.1725 28.6331V34.7326" stroke="#282727" stroke-width="0.899986" stroke-linecap="round" stroke-linejoin="round"/>
<path d="M96.2881 34.7326V28.6331C96.2881 28.6331 96.7909 26.2344 98.4907 26.2344C100.19 26.2344 100.87 28.6331 100.87 28.6331V34.7326" stroke="#282727" stroke-width="0.899986" stroke-linecap="round" stroke-linejoin="round"/>
<path d="M102.986 34.7326V28.6331C102.986 28.6331 103.489 26.2344 105.188 26.2344C106.888 26.2344 107.568 28.6331 107.568 28.6331V34.7326" stroke="#282727" stroke-width="0.899986" stroke-linecap="round" stroke-linejoin="round"/>
<path d="M109.683 34.7326V28.6331C109.683 28.6331 110.186 26.2344 111.886 26.2344C113.585 26.2344 114.265 28.6331 114.265 28.6331V34.7326" stroke="#282727" stroke-width="0.899986" stroke-linecap="round" stroke-linejoin="round"/>
<path d="M66.8296 14.8601V9.24414H73.0857V16.588" stroke="#282727" stroke-width="0.899986" stroke-linecap="round" stroke-linejoin="round"/>
<path d="M66.8296 9.24475L65.3638 7.30078H74.5112L73.0857 9.24475" stroke="#282727" stroke-width="0.899986" stroke-linecap="round" stroke-linejoin="round"/>
<path d="M66.8296 7.30135C66.8296 7.30135 65.6632 3.02462 69.9579 1.33984" stroke="#282727" stroke-width="0.899986" stroke-linecap="round" stroke-linejoin="round"/>
<path d="M73.1835 7.30069C73.1835 7.30069 74.3499 3.02395 70.0552 1.33918V0" stroke="#282727" stroke-width="0.899986" stroke-linecap="round" stroke-linejoin="round"/>
<path d="M83.7518 18.7127C83.7518 18.7127 82.8626 15.4529 86.1362 14.1689" stroke="#282727" stroke-width="0.899986" stroke-linecap="round" stroke-linejoin="round"/>
<path d="M88.5938 18.7134C88.5938 18.7134 89.483 15.4536 86.2095 14.1697V13.3057" stroke="#282727" stroke-width="0.899986" stroke-linecap="round" stroke-linejoin="round"/>
<path d="M74.5112 20.9541H116.002" stroke="#282727" stroke-width="0.899986" stroke-linecap="round" stroke-linejoin="round"/>
<path d="M82.4126 20.9548V19.1807H89.9329V20.9548" stroke="#282727" stroke-width="0.899986" stroke-linecap="round" stroke-linejoin="round"/>
<path d="M102.072 18.7127C102.072 18.7127 101.183 15.4529 104.456 14.1689" stroke="#282727" stroke-width="0.899986" stroke-linecap="round" stroke-linejoin="round"/>
<path d="M106.915 18.7134C106.915 18.7134 107.804 15.4536 104.53 14.1697V13.3057" stroke="#282727" stroke-width="0.899986" stroke-linecap="round" stroke-linejoin="round"/>
<path d="M100.733 20.9548V19.1807H108.254V20.9548" stroke="#282727" stroke-width="0.899986" stroke-linecap="round" stroke-linejoin="round"/>
<path d="M76.4121 20.9541V22.8087" stroke="#282727" stroke-width="0.899986" stroke-linecap="round" stroke-linejoin="round"/>
<path d="M57.7012 36.334V38.1886" stroke="#282727" stroke-width="0.899986" stroke-linecap="round" stroke-linejoin="round"/>
<path d="M59.7886 36.334V38.1886" stroke="#282727" stroke-width="0.899986" stroke-linecap="round" stroke-linejoin="round"/>
<path d="M61.876 36.334V38.1886" stroke="#282727" stroke-width="0.899986" stroke-linecap="round" stroke-linejoin="round"/>
<path d="M63.9629 36.334V38.1886" stroke="#282727" stroke-width="0.899986" stroke-linecap="round" stroke-linejoin="round"/>
<path d="M66.0498 36.334V38.1886" stroke="#282727" stroke-width="0.899986" stroke-linecap="round" stroke-linejoin="round"/>
<path d="M68.1377 36.334V38.1886" stroke="#282727" stroke-width="0.899986" stroke-linecap="round" stroke-linejoin="round"/>
<path d="M70.2241 36.334V38.1886" stroke="#282727" stroke-width="0.899986" stroke-linecap="round" stroke-linejoin="round"/>
<path d="M72.3115 36.334V38.1886" stroke="#282727" stroke-width="0.899986" stroke-linecap="round" stroke-linejoin="round"/>
<path d="M74.3989 36.334V38.1886" stroke="#282727" stroke-width="0.899986" stroke-linecap="round" stroke-linejoin="round"/>
<path d="M76.4868 36.334V38.1886" stroke="#282727" stroke-width="0.899986" stroke-linecap="round" stroke-linejoin="round"/>
<path d="M78.5737 36.334V38.1886" stroke="#282727" stroke-width="0.899986" stroke-linecap="round" stroke-linejoin="round"/>
<path d="M80.6602 36.334V38.1886" stroke="#282727" stroke-width="0.899986" stroke-linecap="round" stroke-linejoin="round"/>
<path d="M82.748 36.334V38.1886" stroke="#282727" stroke-width="0.899986" stroke-linecap="round" stroke-linejoin="round"/>
<path d="M84.8354 36.334V38.1886" stroke="#282727" stroke-width="0.899986" stroke-linecap="round" stroke-linejoin="round"/>
<path d="M86.9219 36.334V38.1886" stroke="#282727" stroke-width="0.899986" stroke-linecap="round" stroke-linejoin="round"/>
<path d="M89.0093 36.334V38.1886" stroke="#282727" stroke-width="0.899986" stroke-linecap="round" stroke-linejoin="round"/>
<path d="M91.0967 36.334V38.1886" stroke="#282727" stroke-width="0.899986" stroke-linecap="round" stroke-linejoin="round"/>
<path d="M93.1831 36.334V38.1886" stroke="#282727" stroke-width="0.899986" stroke-linecap="round" stroke-linejoin="round"/>
<path d="M95.2705 36.334V38.1886" stroke="#282727" stroke-width="0.899986" stroke-linecap="round" stroke-linejoin="round"/>
<path d="M97.3579 36.334V38.1886" stroke="#282727" stroke-width="0.899986" stroke-linecap="round" stroke-linejoin="round"/>
<path d="M99.4453 36.334V38.1886" stroke="#282727" stroke-width="0.899986" stroke-linecap="round" stroke-linejoin="round"/>
<path d="M101.533 36.334V38.1886" stroke="#282727" stroke-width="0.899986" stroke-linecap="round" stroke-linejoin="round"/>
<path d="M103.62 36.334V38.1886" stroke="#282727" stroke-width="0.899986" stroke-linecap="round" stroke-linejoin="round"/>
<path d="M105.707 36.334V38.1886" stroke="#282727" stroke-width="0.899986" stroke-linecap="round" stroke-linejoin="round"/>
<path d="M107.794 36.334V38.1886" stroke="#282727" stroke-width="0.899986" stroke-linecap="round" stroke-linejoin="round"/>
<path d="M109.882 36.334V38.1886" stroke="#282727" stroke-width="0.899986" stroke-linecap="round" stroke-linejoin="round"/>
<path d="M111.968 36.334V38.1886" stroke="#282727" stroke-width="0.899986" stroke-linecap="round" stroke-linejoin="round"/>
<path d="M114.056 36.334V38.1886" stroke="#282727" stroke-width="0.899986" stroke-linecap="round" stroke-linejoin="round"/>
<path d="M78.4854 20.9541V22.8087" stroke="#282727" stroke-width="0.899986" stroke-linecap="round" stroke-linejoin="round"/>
<path d="M80.5591 20.9541V22.8087" stroke="#282727" stroke-width="0.899986" stroke-linecap="round" stroke-linejoin="round"/>
<path d="M82.6323 20.9541V22.8087" stroke="#282727" stroke-width="0.899986" stroke-linecap="round" stroke-linejoin="round"/>
<path d="M84.7065 20.9541V22.8087" stroke="#282727" stroke-width="0.899986" stroke-linecap="round" stroke-linejoin="round"/>
<path d="M86.7798 20.9541V22.8087" stroke="#282727" stroke-width="0.899986" stroke-linecap="round" stroke-linejoin="round"/>
<path d="M88.854 20.9541V22.8087" stroke="#282727" stroke-width="0.899986" stroke-linecap="round" stroke-linejoin="round"/>
<path d="M90.9272 20.9541V22.8087" stroke="#282727" stroke-width="0.899986" stroke-linecap="round" stroke-linejoin="round"/>
<path d="M93.0005 20.9541V22.8087" stroke="#282727" stroke-width="0.899986" stroke-linecap="round" stroke-linejoin="round"/>
<path d="M95.0742 20.9541V22.8087" stroke="#282727" stroke-width="0.899986" stroke-linecap="round" stroke-linejoin="round"/>
<path d="M97.1479 20.9541V22.8087" stroke="#282727" stroke-width="0.899986" stroke-linecap="round" stroke-linejoin="round"/>
<path d="M99.2212 20.9541V22.8087" stroke="#282727" stroke-width="0.899986" stroke-linecap="round" stroke-linejoin="round"/>
<path d="M101.295 20.9541V22.8087" stroke="#282727" stroke-width="0.899986" stroke-linecap="round" stroke-linejoin="round"/>
<path d="M103.368 20.9541V22.8087" stroke="#282727" stroke-width="0.899986" stroke-linecap="round" stroke-linejoin="round"/>
<path d="M105.442 20.9541V22.8087" stroke="#282727" stroke-width="0.899986" stroke-linecap="round" stroke-linejoin="round"/>
<path d="M107.515 20.9541V22.8087" stroke="#282727" stroke-width="0.899986" stroke-linecap="round" stroke-linejoin="round"/>
<path d="M109.589 20.9541V22.8087" stroke="#282727" stroke-width="0.899986" stroke-linecap="round" stroke-linejoin="round"/>
<path d="M111.663 20.9541V22.8087" stroke="#282727" stroke-width="0.899986" stroke-linecap="round" stroke-linejoin="round"/>
<path d="M113.736 20.9541V22.8087" stroke="#282727" stroke-width="0.899986" stroke-linecap="round" stroke-linejoin="round"/>
<path d="M115.81 20.9541V22.8087" stroke="#282727" stroke-width="0.899986" stroke-linecap="round" stroke-linejoin="round"/>
<path d="M62.8438 51.8398H66.0507" stroke="#282727" stroke-width="0.899986" stroke-linecap="round" stroke-linejoin="round"/>
<path d="M88.6323 51.8398H91.8399" stroke="#282727" stroke-width="0.899986" stroke-linecap="round" stroke-linejoin="round"/>
<path d="M103.839 51.8398H107.046" stroke="#282727" stroke-width="0.899986" stroke-linecap="round" stroke-linejoin="round"/>
<path d="M71.3579 51.8398H77.2762" stroke="#282727" stroke-width="0.899986" stroke-linecap="round" stroke-linejoin="round"/>
<path d="M72.3514 49.4199H65.3633" stroke="#282727" stroke-width="0.899986" stroke-linecap="round" stroke-linejoin="round"/>
<path d="M91.3765 49.4199H94.6248H104.307" stroke="#282727" stroke-width="0.899986" stroke-linecap="round" stroke-linejoin="round"/>
<path d="M106.588 49.4199H109.589H116.143" stroke="#282727" stroke-width="0.899986" stroke-linecap="round" stroke-linejoin="round"/>
<path d="M89.0951 49.4186H79.6602H76.1641V40.5195" stroke="#282727" stroke-width="0.899986" stroke-linecap="round" stroke-linejoin="round"/>
<path d="M63.5361 49.4199H57.6802" stroke="#282727" stroke-width="0.899986" stroke-linecap="round" stroke-linejoin="round"/>
<path d="M109.589 49.4199V65.1013" stroke="#282727" stroke-width="0.899986" stroke-linecap="round" stroke-linejoin="round"/>
<path d="M94.6245 49.4199V65.1013" stroke="#282727" stroke-width="0.899986" stroke-linecap="round" stroke-linejoin="round"/>
<path d="M79.6611 49.4199V65.1013" stroke="#282727" stroke-width="0.899986" stroke-linecap="round" stroke-linejoin="round"/>
<path d="M68.3218 5.48633V7.73269" stroke="#282727" stroke-width="0.899986" stroke-linecap="round" stroke-linejoin="round"/>
<path d="M69.9585 5.48633V7.73269" stroke="#282727" stroke-width="0.899986" stroke-linecap="round" stroke-linejoin="round"/>
<path d="M71.5933 5.48633V7.73269" stroke="#282727" stroke-width="0.899986" stroke-linecap="round" stroke-linejoin="round"/>
<path d="M-0.25 21H41.25L41.75 35H-0.25V21Z" fill="#FEB01B"/>
<path d="M13.75 19H8.25C8.25 19 8.26184 16.9763 8.75 16C9.23816 15.0237 10.75 14 10.75 14C10.75 14 12.6642 15.0237 13.25 16C13.8358 16.9763 13.75 19 13.75 19Z" fill="#FEB01B"/>
<path d="M31.7502 19H26.75C26.75 19 26.262 16.9763 26.7502 16C27.2383 15.0237 28.7502 14 28.7502 14C28.7502 14 30.6644 15.0237 31.2502 16C31.8359 16.9763 31.7502 19 31.7502 19Z" fill="#FEB01B"/>
<path d="M45.223 77.1161V67.0459H43.1494V77.1161" stroke="#282727" stroke-width="0.899986" stroke-linecap="round" stroke-linejoin="round"/>
<path d="M28.3758 77.1161V67.0459H26.3022V77.1161" stroke="#282727" stroke-width="0.899986" stroke-linecap="round" stroke-linejoin="round"/>
<path d="M11.5282 77.1161V67.0459H9.45459V77.1161" stroke="#282727" stroke-width="0.899986" stroke-linecap="round" stroke-linejoin="round"/>
<path d="M57.8003 68.4932V77.1162" stroke="#282727" stroke-width="0.899986" stroke-linecap="round" stroke-linejoin="round"/>
<path d="M55.2461 68.4932V77.1162" stroke="#282727" stroke-width="0.899986" stroke-linecap="round" stroke-linejoin="round"/>
<path d="M52.6919 68.4932V77.1162" stroke="#282727" stroke-width="0.899986" stroke-linecap="round" stroke-linejoin="round"/>
<path d="M50.1381 77.1163V68.4932V49.4207C50.1381 49.4207 50.0619 45.6191 46.4331 45.6191C42.8044 45.6191 43.15 49.4207 43.15 49.4207V67.046" stroke="#282727" stroke-width="0.899986" stroke-linecap="round" stroke-linejoin="round"/>
<path d="M47.584 68.4932V77.1162" stroke="#282727" stroke-width="0.899986" stroke-linecap="round" stroke-linejoin="round"/>
<path d="M40.5342 68.4932V77.1162" stroke="#282727" stroke-width="0.899986" stroke-linecap="round" stroke-linejoin="round"/>
<path d="M37.98 68.4932V77.1162" stroke="#282727" stroke-width="0.899986" stroke-linecap="round" stroke-linejoin="round"/>
<path d="M35.4258 68.4932V77.1162" stroke="#282727" stroke-width="0.899986" stroke-linecap="round" stroke-linejoin="round"/>
<path d="M32.8726 68.4932V77.1162" stroke="#282727" stroke-width="0.899986" stroke-linecap="round" stroke-linejoin="round"/>
<path d="M30.3179 68.4932V77.1162" stroke="#282727" stroke-width="0.899986" stroke-linecap="round" stroke-linejoin="round"/>
<path d="M7.03564 68.4932V77.1162" stroke="#282727" stroke-width="0.899986" stroke-linecap="round" stroke-linejoin="round"/>
<path d="M4.57324 68.4932V77.1162" stroke="#282727" stroke-width="0.899986" stroke-linecap="round" stroke-linejoin="round"/>
<path d="M2.11084 68.4932V77.1162" stroke="#282727" stroke-width="0.899986" stroke-linecap="round" stroke-linejoin="round"/>
<path d="M-0.351562 68.4932V77.1162" stroke="#282727" stroke-width="0.899986" stroke-linecap="round" stroke-linejoin="round"/>
<path d="M23.8833 68.4932V77.1162" stroke="#282727" stroke-width="0.899986" stroke-linecap="round" stroke-linejoin="round"/>
<path d="M21.291 68.4932V77.1162" stroke="#282727" stroke-width="0.899986" stroke-linecap="round" stroke-linejoin="round"/>
<path d="M18.6992 68.4932V77.1162" stroke="#282727" stroke-width="0.899986" stroke-linecap="round" stroke-linejoin="round"/>
<path d="M16.1079 68.4932V77.1162" stroke="#282727" stroke-width="0.899986" stroke-linecap="round" stroke-linejoin="round"/>
<path d="M13.5146 68.4932V77.1162" stroke="#282727" stroke-width="0.899986" stroke-linecap="round" stroke-linejoin="round"/>
<path d="M57.8212 40.25H-0.351562" stroke="#282727" stroke-width="0.899986" stroke-linecap="round" stroke-linejoin="round"/>
<path d="M57.8212 42.249H-0.351562" stroke="#282727" stroke-width="0.899986" stroke-linecap="round" stroke-linejoin="round"/>
<path d="M57.8209 34.7314H-0.5" stroke="#282727" stroke-width="0.899986" stroke-linecap="round" stroke-linejoin="round"/>
<path d="M57.8212 44.0635C57.8212 44.0635 51.9629 44.4091 51.9629 49.593C51.9629 54.7769 51.9629 68.4927 51.9629 68.4927" stroke="#282727" stroke-width="0.899986" stroke-linecap="round" stroke-linejoin="round"/>
<path d="M39.5217 68.4917V51.1472C39.5217 51.1472 39.7845 44.2803 32.6548 44.2803" stroke="#282727" stroke-width="0.899986" stroke-linecap="round" stroke-linejoin="round"/>
<path d="M26.2219 68.4917V51.1472C26.2219 51.1472 25.9591 44.2803 33.0888 44.2803" stroke="#282727" stroke-width="0.899986" stroke-linecap="round" stroke-linejoin="round"/>
<path d="M24.3093 68.4917V51.1472C24.3093 51.1472 24.5721 44.2803 17.4424 44.2803" stroke="#282727" stroke-width="0.899986" stroke-linecap="round" stroke-linejoin="round"/>
<path d="M11.0095 67.0445V51.1472C11.0095 51.1472 10.7467 44.2803 17.8764 44.2803" stroke="#282727" stroke-width="0.899986" stroke-linecap="round" stroke-linejoin="round"/>
<path d="M9.09737 68.4917V51.1472C9.09737 51.1472 9.36016 44.2803 2.23047 44.2803" stroke="#282727" stroke-width="0.899986" stroke-linecap="round" stroke-linejoin="round"/>
<path d="M-0.351562 44.8017C0.467425 44.4759 1.46101 44.2803 2.66519 44.2803" stroke="#282727" stroke-width="0.899986" stroke-linecap="round" stroke-linejoin="round"/>
<path d="M57.8209 17.7978C57.8209 17.7978 53.1512 16.9338 50.138 21.6857H41.5947V34.7319" stroke="#282727" stroke-width="0.899986" stroke-linecap="round" stroke-linejoin="round"/>
<path d="M57.8205 14.8604C57.8205 14.8604 51.7726 14.8604 49.7074 19.1803H39.522L41.5943 21.6858" stroke="#282727" stroke-width="0.899986" stroke-linecap="round" stroke-linejoin="round"/>
<path d="M41.5947 19.1789V16.5869H51.9626" stroke="#282727" stroke-width="0.899986" stroke-linecap="round" stroke-linejoin="round"/>
<path d="M48.6719 16.5887C49.8737 7.60325 57.8211 6.39366 57.8211 6.39366V3.62891" stroke="#282727" stroke-width="0.899986" stroke-linecap="round" stroke-linejoin="round"/>
<path d="M56.4552 8.12109C56.4552 8.12109 50.7967 12.3024 50.7529 16.5882" stroke="#282727" stroke-width="0.899986" stroke-linecap="round" stroke-linejoin="round"/>
<path d="M56.4555 10.1074C56.4555 10.1074 53.4651 13.0294 53.6043 15.7311" stroke="#282727" stroke-width="0.899986" stroke-linecap="round" stroke-linejoin="round"/>
<path d="M57.8212 21.6855C57.8212 21.6855 53.6045 21.7719 53.6045 25.2279C53.6045 28.6838 53.6045 34.7317 53.6045 34.7317" stroke="#282727" stroke-width="0.899986" stroke-linecap="round" stroke-linejoin="round"/>
<path d="M50.7982 34.732V27.0425C50.7982 27.0425 50.0308 24.0186 47.4388 24.0186C44.8468 24.0186 43.8101 27.0425 43.8101 27.0425V34.732" stroke="#282727" stroke-width="0.899986" stroke-linecap="round" stroke-linejoin="round"/>
<path d="M12.4435 34.9846V28.8851C12.4435 28.8851 11.9407 26.4863 10.2409 26.4863C8.54112 26.4863 7.86133 28.8851 7.86133 28.8851V34.9846" fill="white"/>
<path d="M19.0685 34.9846V28.8851C19.0685 28.8851 18.5657 26.4863 16.8659 26.4863C15.1661 26.4863 14.4863 28.8851 14.4863 28.8851V34.9846" fill="white"/>
<path d="M25.6939 34.9846V28.8851C25.6939 28.8851 25.1912 26.4863 23.4914 26.4863C21.7916 26.4863 21.1118 28.8851 21.1118 28.8851V34.9846" fill="white"/>
<path d="M32.3194 34.9846V28.8851C32.3194 28.8851 31.8166 26.4863 30.1169 26.4863C28.4171 26.4863 27.7373 28.8851 27.7373 28.8851V34.9846" fill="white"/>
<path d="M38.9444 34.9846V28.8851C38.9444 28.8851 38.4416 26.4863 36.7419 26.4863C35.0421 26.4863 34.3623 28.8851 34.3623 28.8851V34.9846" fill="white"/>
<path d="M39.3072 34.7326V28.6331C39.3072 28.6331 38.8044 26.2344 37.1047 26.2344C35.4049 26.2344 34.7251 28.6331 34.7251 28.6331V34.7326" stroke="#282727" stroke-width="0.899986" stroke-linecap="round" stroke-linejoin="round"/>
<path d="M32.6095 34.7326V28.6331C32.6095 28.6331 32.1067 26.2344 30.4069 26.2344C28.7071 26.2344 28.0273 28.6331 28.0273 28.6331V34.7326" stroke="#282727" stroke-width="0.899986" stroke-linecap="round" stroke-linejoin="round"/>
<path d="M25.9117 34.7326V28.6331C25.9117 28.6331 25.4089 26.2344 23.7092 26.2344C22.0094 26.2344 21.3296 28.6331 21.3296 28.6331V34.7326" stroke="#282727" stroke-width="0.899986" stroke-linecap="round" stroke-linejoin="round"/>
<path d="M19.2135 34.7326V28.6331C19.2135 28.6331 18.7107 26.2344 17.0109 26.2344C15.3111 26.2344 14.6313 28.6331 14.6313 28.6331V34.7326" stroke="#282727" stroke-width="0.899986" stroke-linecap="round" stroke-linejoin="round"/>
<path d="M12.5157 34.7326V28.6331C12.5157 28.6331 12.0129 26.2344 10.3132 26.2344C8.61338 26.2344 7.93359 28.6331 7.93359 28.6331V34.7326" stroke="#282727" stroke-width="0.899986" stroke-linecap="round" stroke-linejoin="round"/>
<path d="M5.81846 34.9846V28.8851C5.81846 28.8851 5.31567 26.4863 3.61589 26.4863C1.91612 26.4863 1.23633 28.8851 1.23633 28.8851V34.9846" fill="white"/>
<path d="M5.81846 34.7326V28.6331C5.81846 28.6331 5.31567 26.2344 3.61589 26.2344C1.91612 26.2344 1.23633 28.6331 1.23633 28.6331V34.7326" stroke="#282727" stroke-width="0.899986" stroke-linecap="round" stroke-linejoin="round"/>
<path d="M48.6716 14.8601V9.24414H42.4155V16.588" stroke="#282727" stroke-width="0.899986" stroke-linecap="round" stroke-linejoin="round"/>
<path d="M48.6714 9.24475L50.1378 7.30078H40.9897L42.4153 9.24475" stroke="#282727" stroke-width="0.899986" stroke-linecap="round" stroke-linejoin="round"/>
<path d="M48.6718 7.30135C48.6718 7.30135 49.8382 3.02462 45.5435 1.33984" stroke="#282727" stroke-width="0.899986" stroke-linecap="round" stroke-linejoin="round"/>
<path d="M42.3174 7.30069C42.3174 7.30069 41.151 3.02395 45.4457 1.33918V0" stroke="#282727" stroke-width="0.899986" stroke-linecap="round" stroke-linejoin="round"/>
<path d="M31.7486 18.7127C31.7486 18.7127 32.6378 15.4529 29.3643 14.1689" stroke="#282727" stroke-width="0.899986" stroke-linecap="round" stroke-linejoin="round"/>
<path d="M26.9066 18.7134C26.9066 18.7134 26.0174 15.4536 29.2909 14.1697V13.3057" stroke="#282727" stroke-width="0.899986" stroke-linecap="round" stroke-linejoin="round"/>
<path d="M40.99 20.9541H-0.5" stroke="#282727" stroke-width="0.899986" stroke-linecap="round" stroke-linejoin="round"/>
<path d="M33.0883 20.9548V19.1807H25.5674V20.9548" stroke="#282727" stroke-width="0.899986" stroke-linecap="round" stroke-linejoin="round"/>
<path d="M13.4288 18.7127C13.4288 18.7127 14.318 15.4529 11.0444 14.1689" stroke="#282727" stroke-width="0.899986" stroke-linecap="round" stroke-linejoin="round"/>
<path d="M8.58724 18.7134C8.58724 18.7134 7.69805 15.4536 10.9716 14.1697V13.3057" stroke="#282727" stroke-width="0.899986" stroke-linecap="round" stroke-linejoin="round"/>
<path d="M14.7688 20.9548V19.1807H7.24854V20.9548" stroke="#282727" stroke-width="0.899986" stroke-linecap="round" stroke-linejoin="round"/>
<path d="M39.0894 20.9541V22.8087" stroke="#282727" stroke-width="0.899986" stroke-linecap="round" stroke-linejoin="round"/>
<path d="M57.8003 36.334V38.1886" stroke="#282727" stroke-width="0.899986" stroke-linecap="round" stroke-linejoin="round"/>
<path d="M55.7129 36.334V38.1886" stroke="#282727" stroke-width="0.899986" stroke-linecap="round" stroke-linejoin="round"/>
<path d="M53.6255 36.334V38.1886" stroke="#282727" stroke-width="0.899986" stroke-linecap="round" stroke-linejoin="round"/>
<path d="M51.5386 36.334V38.1886" stroke="#282727" stroke-width="0.899986" stroke-linecap="round" stroke-linejoin="round"/>
<path d="M49.4517 36.334V38.1886" stroke="#282727" stroke-width="0.899986" stroke-linecap="round" stroke-linejoin="round"/>
<path d="M47.3638 36.334V38.1886" stroke="#282727" stroke-width="0.899986" stroke-linecap="round" stroke-linejoin="round"/>
<path d="M45.2769 36.334V38.1886" stroke="#282727" stroke-width="0.899986" stroke-linecap="round" stroke-linejoin="round"/>
<path d="M43.1899 36.334V38.1886" stroke="#282727" stroke-width="0.899986" stroke-linecap="round" stroke-linejoin="round"/>
<path d="M41.1021 36.334V38.1886" stroke="#282727" stroke-width="0.899986" stroke-linecap="round" stroke-linejoin="round"/>
<path d="M39.0142 36.334V38.1886" stroke="#282727" stroke-width="0.899986" stroke-linecap="round" stroke-linejoin="round"/>
<path d="M36.9277 36.334V38.1886" stroke="#282727" stroke-width="0.899986" stroke-linecap="round" stroke-linejoin="round"/>
<path d="M34.8408 36.334V38.1886" stroke="#282727" stroke-width="0.899986" stroke-linecap="round" stroke-linejoin="round"/>
<path d="M32.7529 36.334V38.1886" stroke="#282727" stroke-width="0.899986" stroke-linecap="round" stroke-linejoin="round"/>
<path d="M30.6665 36.334V38.1886" stroke="#282727" stroke-width="0.899986" stroke-linecap="round" stroke-linejoin="round"/>
<path d="M28.5796 36.334V38.1886" stroke="#282727" stroke-width="0.899986" stroke-linecap="round" stroke-linejoin="round"/>
<path d="M26.4917 36.334V38.1886" stroke="#282727" stroke-width="0.899986" stroke-linecap="round" stroke-linejoin="round"/>
<path d="M24.4048 36.334V38.1886" stroke="#282727" stroke-width="0.899986" stroke-linecap="round" stroke-linejoin="round"/>
<path d="M22.3184 36.334V38.1886" stroke="#282727" stroke-width="0.899986" stroke-linecap="round" stroke-linejoin="round"/>
<path d="M20.2305 36.334V38.1886" stroke="#282727" stroke-width="0.899986" stroke-linecap="round" stroke-linejoin="round"/>
<path d="M18.1431 36.334V38.1886" stroke="#282727" stroke-width="0.899986" stroke-linecap="round" stroke-linejoin="round"/>
<path d="M16.0566 36.334V38.1886" stroke="#282727" stroke-width="0.899986" stroke-linecap="round" stroke-linejoin="round"/>
<path d="M13.9683 36.334V38.1886" stroke="#282727" stroke-width="0.899986" stroke-linecap="round" stroke-linejoin="round"/>
<path d="M11.8813 36.334V38.1886" stroke="#282727" stroke-width="0.899986" stroke-linecap="round" stroke-linejoin="round"/>
<path d="M9.79443 36.334V38.1886" stroke="#282727" stroke-width="0.899986" stroke-linecap="round" stroke-linejoin="round"/>
<path d="M7.70703 36.334V38.1886" stroke="#282727" stroke-width="0.899986" stroke-linecap="round" stroke-linejoin="round"/>
<path d="M5.62012 36.334V38.1886" stroke="#282727" stroke-width="0.899986" stroke-linecap="round" stroke-linejoin="round"/>
<path d="M3.5332 36.334V38.1886" stroke="#282727" stroke-width="0.899986" stroke-linecap="round" stroke-linejoin="round"/>
<path d="M1.4458 36.334V38.1886" stroke="#282727" stroke-width="0.899986" stroke-linecap="round" stroke-linejoin="round"/>
<path d="M37.0161 20.9541V22.8087" stroke="#282727" stroke-width="0.899986" stroke-linecap="round" stroke-linejoin="round"/>
<path d="M34.9424 20.9541V22.8087" stroke="#282727" stroke-width="0.899986" stroke-linecap="round" stroke-linejoin="round"/>
<path d="M32.8687 20.9541V22.8087" stroke="#282727" stroke-width="0.899986" stroke-linecap="round" stroke-linejoin="round"/>
<path d="M30.7949 20.9541V22.8087" stroke="#282727" stroke-width="0.899986" stroke-linecap="round" stroke-linejoin="round"/>
<path d="M28.7217 20.9541V22.8087" stroke="#282727" stroke-width="0.899986" stroke-linecap="round" stroke-linejoin="round"/>
<path d="M26.6475 20.9541V22.8087" stroke="#282727" stroke-width="0.899986" stroke-linecap="round" stroke-linejoin="round"/>
<path d="M24.5747 20.9541V22.8087" stroke="#282727" stroke-width="0.899986" stroke-linecap="round" stroke-linejoin="round"/>
<path d="M22.501 20.9541V22.8087" stroke="#282727" stroke-width="0.899986" stroke-linecap="round" stroke-linejoin="round"/>
<path d="M20.4272 20.9541V22.8087" stroke="#282727" stroke-width="0.899986" stroke-linecap="round" stroke-linejoin="round"/>
<path d="M18.3535 20.9541V22.8087" stroke="#282727" stroke-width="0.899986" stroke-linecap="round" stroke-linejoin="round"/>
<path d="M16.2803 20.9541V22.8087" stroke="#282727" stroke-width="0.899986" stroke-linecap="round" stroke-linejoin="round"/>
<path d="M14.2065 20.9541V22.8087" stroke="#282727" stroke-width="0.899986" stroke-linecap="round" stroke-linejoin="round"/>
<path d="M12.1328 20.9541V22.8087" stroke="#282727" stroke-width="0.899986" stroke-linecap="round" stroke-linejoin="round"/>
<path d="M10.0591 20.9541V22.8087" stroke="#282727" stroke-width="0.899986" stroke-linecap="round" stroke-linejoin="round"/>
<path d="M7.98584 20.9541V22.8087" stroke="#282727" stroke-width="0.899986" stroke-linecap="round" stroke-linejoin="round"/>
<path d="M5.91211 20.9541V22.8087" stroke="#282727" stroke-width="0.899986" stroke-linecap="round" stroke-linejoin="round"/>
<path d="M3.83887 20.9541V22.8087" stroke="#282727" stroke-width="0.899986" stroke-linecap="round" stroke-linejoin="round"/>
<path d="M1.76514 20.9541V22.8087" stroke="#282727" stroke-width="0.899986" stroke-linecap="round" stroke-linejoin="round"/>
<path d="M-0.308105 20.9541V22.8087" stroke="#282727" stroke-width="0.899986" stroke-linecap="round" stroke-linejoin="round"/>
<path d="M52.6592 51.8398H49.4517" stroke="#282727" stroke-width="0.899986" stroke-linecap="round" stroke-linejoin="round"/>
<path d="M26.8692 51.8398H23.6616" stroke="#282727" stroke-width="0.899986" stroke-linecap="round" stroke-linejoin="round"/>
<path d="M11.6631 51.8398H8.45557" stroke="#282727" stroke-width="0.899986" stroke-linecap="round" stroke-linejoin="round"/>
<path d="M44.1434 51.8398H38.2251" stroke="#282727" stroke-width="0.899986" stroke-linecap="round" stroke-linejoin="round"/>
<path d="M50.1375 49.4199H43.1494" stroke="#282727" stroke-width="0.899986" stroke-linecap="round" stroke-linejoin="round"/>
<path d="M11.1938 49.4199H20.8765H24.1249" stroke="#282727" stroke-width="0.899986" stroke-linecap="round" stroke-linejoin="round"/>
<path d="M-0.641602 49.4199H5.9121H8.91265" stroke="#282727" stroke-width="0.899986" stroke-linecap="round" stroke-linejoin="round"/>
<path d="M39.3368 40.25V49.4215H35.8406H26.4058" stroke="#282727" stroke-width="0.899986" stroke-linecap="round" stroke-linejoin="round"/>
<path d="M57.8208 49.4199H51.9648" stroke="#282727" stroke-width="0.899986" stroke-linecap="round" stroke-linejoin="round"/>
<path d="M5.91211 49.4199V65.1013" stroke="#282727" stroke-width="0.899986" stroke-linecap="round" stroke-linejoin="round"/>
<path d="M20.877 49.4199V65.1013" stroke="#282727" stroke-width="0.899986" stroke-linecap="round" stroke-linejoin="round"/>
<path d="M35.8408 49.4199V65.1013" stroke="#282727" stroke-width="0.899986" stroke-linecap="round" stroke-linejoin="round"/>
<path d="M47.1802 5.48633V7.73269" stroke="#282727" stroke-width="0.899986" stroke-linecap="round" stroke-linejoin="round"/>
<path d="M45.5439 5.48633V7.73269" stroke="#282727" stroke-width="0.899986" stroke-linecap="round" stroke-linejoin="round"/>
<path d="M43.9072 5.48633V7.73269" stroke="#282727" stroke-width="0.899986" stroke-linecap="round" stroke-linejoin="round"/>
</g>
<defs>
<clipPath id="clip0_510_1490">
<rect width="115.5" height="77" fill="white"/>
</clipPath>
</defs>
</svg>
