<svg width="43" height="76" viewBox="0 0 43 76" fill="none" xmlns="http://www.w3.org/2000/svg">
<g clip-path="url(#clip0_487_9219)">
<path d="M28.5 4.5H15L14 14.5H11.5V20.5H10V28.5H8.5V31H7.5V38L6.5 38.5L7 41.5V51L6 52.5H4V54H5V60H42L41 57.5H38V54H39V53L37.5 52.5L36.5 51V38H35V33L34.5 29L34 28.5L33.5 23L33 21L32.5 20.5L32 16.5L31 14.5L30.5 11.5L29.5 10L28.5 4.5Z" fill="#FF9900"/>
<path d="M8.5 31V28.5H34.5L34.665 31H8.5Z" fill="#FEB01B"/>
<path d="M10 22.5V21H32.855L33 22.5H10Z" fill="#FEB01B"/>
<path d="M11 16L11.5 15H31.5V16H11Z" fill="#FEB01B"/>
<path d="M16.5 31L16 28.5H27L26 31H16.5Z" fill="#FEC72F"/>
<path d="M17.4091 22.5L17 20.5H26L25.1818 22.5H17.4091Z" fill="#FEC72F"/>
<path d="M18.5 16L18 15H25L24.5 16L18.5 16Z" fill="#FEC72F"/>
<path d="M6.5 38.5H36.5V40H6.5V38.5Z" fill="#FEB01B"/>
<path d="M7 42H18V53H7L5.5 52.5L7 50.5V42Z" fill="#FEC72F"/>
<path d="M36 42H25V53H36L37.5 52.5L36 50.5V42Z" fill="#FEC72F"/>
<rect x="18" y="42" width="7" height="10.5" fill="white"/>
<rect x="13" y="10" width="17" height="1" fill="#FEB01B"/>
<path d="M1 60L2 57.5H16.5V60H1Z" fill="#FEB01B"/>
<path d="M42 60L41 57.5H26.5V60H42Z" fill="#FEB01B"/>
<rect x="17" y="57" width="9" height="17" fill="white"/>
<rect x="15" y="4" width="3" height="4" fill="white"/>
<rect x="25" y="4" width="3" height="4" fill="white"/>
<path d="M40.6539 60.3584H26.6978V73.5658H40.6539V60.3584Z" fill="#FF9900"/>
<path d="M16.3023 60.3584H2.34619V73.5658H16.3023V60.3584Z" fill="#FF9900"/>
<path d="M3.65869 59.6148C3.80705 59.2706 4.15407 59.0254 4.55641 59.0254C4.95875 59.0254 5.30577 59.2681 5.45413 59.6148H3.65869Z" fill="#FF9900"/>
<path d="M7.92334 59.6148C8.0717 59.2706 8.41872 59.0254 8.82106 59.0254C9.2234 59.0254 9.57042 59.2681 9.71878 59.6148H7.92334Z" fill="#FF9900"/>
<path d="M12.1885 59.6148C12.3368 59.2706 12.6839 59.0254 13.0862 59.0254C13.4885 59.0254 13.8356 59.2681 13.9839 59.6148H12.1885Z" fill="#FF9900"/>
<path d="M29.0161 59.6148C29.1645 59.2706 29.5115 59.0254 29.9138 59.0254C30.3162 59.0254 30.6632 59.2681 30.8116 59.6148H29.0161Z" fill="#FF9900"/>
<path d="M33.2783 59.6148C33.4267 59.2706 33.7737 59.0254 34.176 59.0254C34.5784 59.0254 34.9254 59.2681 35.0738 59.6148H33.2783Z" fill="#FF9900"/>
<path d="M37.5 59.5894C37.6484 59.2452 37.9954 59 38.3977 59C38.8001 59 39.1471 59.2427 39.2954 59.5894H37.5Z" fill="#FF9900"/>
<path d="M36.8163 52.3486H25.5659V51.1104H36.1877L36.8163 52.3486Z" fill="#FEB01B"/>
<path d="M21.5001 40.709H36.53L36.2006 41.2885H21.5001H6.79963L6.47021 40.709H21.5001Z" fill="#FF9900"/>
<path d="M35.2472 31.3281H26.5718V37.9529H35.2472V31.3281Z" fill="#FEC72F"/>
<path d="M21.5101 37.9552C21.5101 37.9552 21.5025 37.9552 21.5 37.9552C21.4975 37.9552 21.4925 37.9552 21.49 37.9552H19.6493L19.4028 32.8164H21.49C21.49 32.8164 21.4975 32.8164 21.5 32.8164C21.5025 32.8164 21.5076 32.8164 21.5101 32.8164H23.5972L23.3508 37.9552H21.5101Z" fill="white"/>
<path d="M21.5102 20.2309C21.5102 20.2309 21.5052 20.2309 21.5027 20.2309C21.5001 20.2309 21.4976 20.2309 21.4951 20.2309H20.791V18.2051H21.4951C21.4951 18.2051 21.5027 18.2051 21.5052 18.2051C21.5077 18.2051 21.5127 18.2051 21.5152 18.2051H22.2193V20.2309H21.5152H21.5102Z" fill="white"/>
<path d="M21.5099 28.1212C21.5099 28.1212 21.5023 28.1212 21.4998 28.1212C21.4973 28.1212 21.4923 28.1212 21.4897 28.1212H20.7856V25.4316H21.4897C21.4897 25.4316 21.4973 25.4316 21.4998 25.4316C21.5023 25.4316 21.5073 25.4316 21.5099 25.4316H22.2139V28.1212H21.5099Z" fill="white"/>
<path d="M26.8637 28.1207H25.6416V22.9521H33.4872V28.1207H26.8637Z" fill="#FEC72F"/>
<path d="M25.8027 20.2312H24.6636V16.6006H32.0188V20.2312H25.8027Z" fill="#FEC72F"/>
<path d="M24.6862 14.3936H24.0601V11.709H30.5327V14.3936H24.6862Z" fill="#FEC72F"/>
<path d="M23.9946 9.82204H23.5244V7.97949H29.1873V9.82204H23.9946Z" fill="#FEC72F"/>
<path d="M25.8201 2.26578C25.7296 2.16672 25.5485 1.90916 25.5737 1.73085C25.5787 1.70113 25.5887 1.62436 25.7396 1.53273C25.8528 1.46586 25.9207 1.34451 25.9207 1.21573C25.9207 0.839296 25.9961 0.750141 25.9936 0.750141C26.0037 0.745187 26.0288 0.740234 26.1042 0.740234C26.1797 0.740234 26.2073 0.745187 26.2099 0.745187C26.2099 0.745187 26.2878 0.831866 26.2878 1.21573C26.2878 1.34451 26.3557 1.46586 26.4689 1.53273C26.6197 1.62436 26.6323 1.70113 26.6348 1.73085C26.66 1.90668 26.4789 2.16672 26.3884 2.26331C26.323 2.33265 26.2878 2.4218 26.2878 2.51591V2.9815H25.9207V2.51591C25.9207 2.4218 25.883 2.33265 25.8201 2.26331V2.26578Z" fill="#FF9900"/>
<path d="M22.8479 2.26578C22.7574 2.16672 22.5763 1.90916 22.6015 1.73085C22.6065 1.70113 22.6166 1.62436 22.7675 1.53273C22.8806 1.46586 22.9485 1.34451 22.9485 1.21573C22.9485 0.839296 23.024 0.750141 23.0214 0.750141C23.0315 0.745187 23.0566 0.740234 23.1321 0.740234C23.2075 0.740234 23.2327 0.745187 23.2377 0.745187C23.2377 0.745187 23.3156 0.831866 23.3156 1.21573C23.3156 1.34451 23.3835 1.46586 23.4967 1.53273C23.6476 1.62436 23.6601 1.70113 23.6627 1.73085C23.6878 1.90668 23.5068 2.16672 23.4162 2.26331C23.3509 2.33265 23.3156 2.4218 23.3156 2.51591V2.9815H22.9485V2.51591C22.9485 2.4218 22.9108 2.33265 22.8479 2.26331V2.26578Z" fill="#FF9900"/>
<path d="M19.5838 2.26578C19.4932 2.16672 19.3122 1.90916 19.3373 1.73085C19.3424 1.70113 19.3524 1.62436 19.5033 1.53273C19.6165 1.46586 19.6843 1.34451 19.6843 1.21573C19.6843 0.839296 19.7598 0.750141 19.7573 0.750141C19.7673 0.745187 19.7925 0.740234 19.8679 0.740234C19.9434 0.740234 19.9685 0.745187 19.9735 0.745187C19.9735 0.745187 20.0515 0.831866 20.0515 1.21573C20.0515 1.34451 20.1194 1.46586 20.2325 1.53273C20.3834 1.62436 20.396 1.70113 20.3985 1.73085C20.4236 1.90668 20.2426 2.16672 20.1521 2.26331C20.0867 2.33265 20.0515 2.4218 20.0515 2.51591V2.9815H19.6843V2.51591C19.6843 2.4218 19.6466 2.33265 19.5838 2.26331V2.26578Z" fill="#FF9900"/>
<path d="M16.6116 2.26578C16.5211 2.16672 16.34 1.90916 16.3652 1.73085C16.3702 1.70113 16.3803 1.62436 16.5311 1.53273C16.6443 1.46586 16.7122 1.34451 16.7122 1.21573C16.7122 0.839296 16.7876 0.750141 16.7851 0.750141C16.7952 0.745187 16.8203 0.740234 16.8957 0.740234C16.9712 0.740234 16.9963 0.745187 17.0014 0.745187C17.0014 0.745187 17.0793 0.831866 17.0793 1.21573C17.0793 1.34451 17.1472 1.46586 17.2604 1.53273C17.4112 1.62436 17.4238 1.70113 17.4263 1.73085C17.4515 1.90668 17.2704 2.16672 17.1799 2.26331C17.1145 2.33265 17.0793 2.4218 17.0793 2.51591V2.9815H16.7122V2.51591C16.7122 2.4218 16.6745 2.33265 16.6116 2.26331V2.26578Z" fill="#FF9900"/>
<path d="M15.832 3.72724H21.4899C21.4899 3.72724 21.4974 3.72724 21.4999 3.72724C21.5024 3.72724 21.5075 3.72724 21.51 3.72724H27.1679C27.6608 3.72724 28.3472 3.47463 28.6842 2.92236C28.7798 2.76386 28.8401 2.59298 28.8602 2.41467C28.9231 2.42458 28.986 2.43448 29.0488 2.43448C29.2726 2.43448 29.4813 2.37009 29.6624 2.26855C29.5191 2.70443 29.2651 3.04371 29.2626 3.04866C29.2123 3.11305 29.1846 3.1923 29.1846 3.27403V7.23649H27.6708V6.67432C27.8167 6.48858 28.0354 6.12205 27.9625 5.66141C27.8795 5.14629 27.4646 4.70299 26.7253 4.34637C26.7178 4.34142 26.7102 4.34142 26.7027 4.33894C26.6901 4.33399 26.68 4.32903 26.6675 4.32656C26.6549 4.32408 26.6423 4.3216 26.6298 4.31913C26.6172 4.31913 26.6071 4.31418 26.5946 4.31418C26.582 4.31418 26.5719 4.31418 26.5593 4.31418C26.5468 4.31418 26.5342 4.31418 26.5191 4.31418C26.5091 4.31418 26.499 4.31665 26.4864 4.31913C26.4739 4.31913 26.4588 4.32408 26.4462 4.32903C26.4361 4.33151 26.4236 4.33646 26.4135 4.34142C26.406 4.34389 26.3959 4.34637 26.3884 4.35132C25.6491 4.70794 25.2341 5.15124 25.1512 5.66636C25.0782 6.12948 25.297 6.49353 25.4429 6.67927V7.24144H23.753C23.753 7.24144 23.753 7.23154 23.753 7.22658C23.753 7.21668 23.7555 7.20677 23.7555 7.19687V6.2533C23.7555 5.55244 23.5418 4.99275 23.1219 4.59155C22.4806 3.97737 21.5905 3.96994 21.4949 3.97241C21.3968 3.96994 20.5092 3.97737 19.8679 4.59155C19.448 4.99522 19.2343 5.55492 19.2343 6.2533V7.19687C19.2343 7.19687 19.2343 7.21668 19.2368 7.22658C19.2368 7.23154 19.2368 7.23649 19.2368 7.24144H17.5469V6.67927C17.6928 6.49353 17.9116 6.127 17.8386 5.66636C17.7557 5.15124 17.3407 4.70794 16.6015 4.35132C16.5939 4.34637 16.5864 4.34637 16.5788 4.34389C16.5688 4.33894 16.5562 4.33399 16.5461 4.33151C16.5336 4.32656 16.521 4.32408 16.5084 4.3216C16.4984 4.3216 16.4858 4.31665 16.4757 4.31665C16.4631 4.31665 16.4506 4.31665 16.438 4.31665C16.4254 4.31665 16.4154 4.31665 16.4028 4.31665C16.3902 4.31665 16.3777 4.31913 16.3651 4.3216C16.3525 4.3216 16.3424 4.32656 16.3299 4.32903C16.3173 4.33151 16.3047 4.33646 16.2947 4.34142C16.2871 4.34389 16.2796 4.34637 16.272 4.34885C15.5327 4.70547 15.1178 5.14877 15.0348 5.66389C14.9619 6.127 15.1807 6.49105 15.3265 6.67679V7.23897H13.8127V3.27403C13.8127 3.1923 13.7851 3.11305 13.7348 3.04866C13.7298 3.04371 13.4783 2.70443 13.335 2.27103C13.516 2.37257 13.7222 2.43696 13.946 2.43696C14.0114 2.43696 14.0743 2.42705 14.1346 2.41715C14.1572 2.59546 14.2151 2.76634 14.3106 2.92484C14.6476 3.47711 15.3341 3.72971 15.8269 3.72971L15.832 3.72724Z" fill="#FEC72F"/>
<path d="M13.813 7.97949H19.4759V9.82204H19.0057H13.813V7.97949Z" fill="#FEC72F"/>
<path d="M12.4673 11.709H18.9399V14.3936H18.3138H12.4673V11.709Z" fill="#FEC72F"/>
<path d="M10.9814 16.6006H18.3367V20.2312H17.1976H10.9814V16.6006Z" fill="#FEC72F"/>
<path d="M9.5127 22.9521H17.3583V28.1207H16.1362H9.5127V22.9521Z" fill="#FEC72F"/>
<path d="M16.4279 31.3281H7.75244V37.9529H16.4279V31.3281Z" fill="#FEC72F"/>
<path d="M6.81225 51.1104H17.434V52.3486H6.18359L6.81225 51.1104Z" fill="#FEB01B"/>
<path d="M21.5001 54.4141H37.7194V57.0541H21.5001H5.28076V54.4141H21.5001Z" fill="#FEC72F"/>
<path d="M6.30688 56.653C6.51559 56.653 6.68407 56.4871 6.68407 56.2815V55.1869C6.68407 54.9814 6.51559 54.8154 6.30688 54.8154C6.09817 54.8154 5.92969 54.9814 5.92969 55.1869V56.2815C5.92969 56.4871 6.09817 56.653 6.30688 56.653Z" fill="black"/>
<path d="M8.4768 56.653C8.68552 56.653 8.854 56.4871 8.854 56.2815V55.1869C8.854 54.9814 8.68552 54.8154 8.4768 54.8154C8.26809 54.8154 8.09961 54.9814 8.09961 55.1869V56.2815C8.09961 56.4871 8.26809 56.653 8.4768 56.653Z" fill="black"/>
<path d="M10.6443 56.653C10.853 56.653 11.0215 56.4871 11.0215 56.2815V55.1869C11.0215 54.9814 10.853 54.8154 10.6443 54.8154C10.4356 54.8154 10.2671 54.9814 10.2671 55.1869V56.2815C10.2671 56.4871 10.4356 56.653 10.6443 56.653Z" fill="black"/>
<path d="M12.8147 56.653C13.0234 56.653 13.1919 56.4871 13.1919 56.2815V55.1869C13.1919 54.9814 13.0234 54.8154 12.8147 54.8154C12.606 54.8154 12.4375 54.9814 12.4375 55.1869V56.2815C12.4375 56.4871 12.606 56.653 12.8147 56.653Z" fill="black"/>
<path d="M14.9822 56.653C15.1909 56.653 15.3594 56.4871 15.3594 56.2815V55.1869C15.3594 54.9814 15.1909 54.8154 14.9822 54.8154C14.7735 54.8154 14.605 54.9814 14.605 55.1869V56.2815C14.605 56.4871 14.7735 56.653 14.9822 56.653Z" fill="black"/>
<path d="M17.1521 56.653C17.3608 56.653 17.5293 56.4871 17.5293 56.2815V55.1869C17.5293 54.9814 17.3608 54.8154 17.1521 54.8154C16.9434 54.8154 16.7749 54.9814 16.7749 55.1869V56.2815C16.7749 56.4871 16.9434 56.653 17.1521 56.653Z" fill="black"/>
<path d="M19.3201 56.653C19.5288 56.653 19.6973 56.4871 19.6973 56.2815V55.1869C19.6973 54.9814 19.5288 54.8154 19.3201 54.8154C19.1114 54.8154 18.9429 54.9814 18.9429 55.1869V56.2815C18.9429 56.4871 19.1114 56.653 19.3201 56.653Z" fill="black"/>
<path d="M21.49 56.653C21.49 56.653 21.4975 56.653 21.5 56.653C21.5026 56.653 21.5076 56.653 21.5101 56.653C21.7188 56.653 21.8873 56.4871 21.8873 56.2815V55.1869C21.8873 54.9814 21.7188 54.8154 21.5101 54.8154C21.5076 54.8154 21.5026 54.8154 21.5 54.8154C21.4975 54.8154 21.4925 54.8154 21.49 54.8154C21.2813 54.8154 21.1128 54.9814 21.1128 55.1869V56.2815C21.1128 56.4871 21.2813 56.653 21.49 56.653Z" fill="black"/>
<path d="M15.4221 71.9141H3.16333C2.95461 71.9141 2.78613 72.08 2.78613 72.2855C2.78613 72.4911 2.95461 72.657 3.16333 72.657H15.4221C15.6308 72.657 15.7993 72.4911 15.7993 72.2855C15.7993 72.08 15.6308 71.9141 15.4221 71.9141Z" fill="black"/>
<path d="M15.4221 70.2744H3.16333C2.95461 70.2744 2.78613 70.4403 2.78613 70.6459C2.78613 70.8514 2.95461 71.0174 3.16333 71.0174H15.4221C15.6308 71.0174 15.7993 70.8514 15.7993 70.6459C15.7993 70.4403 15.6308 70.2744 15.4221 70.2744Z" fill="black"/>
<path d="M3.16333 61.9461H15.4221C15.6308 61.9461 15.7993 61.7802 15.7993 61.5746C15.7993 61.3691 15.6308 61.2031 15.4221 61.2031H3.16333C2.95461 61.2031 2.78613 61.3691 2.78613 61.5746C2.78613 61.7802 2.95461 61.9461 3.16333 61.9461Z" fill="black"/>
<path d="M6.33936 62.7504V69.437C6.33936 69.6426 6.50784 69.8085 6.71655 69.8085C6.92526 69.8085 7.09374 69.6426 7.09374 69.437V62.7504C7.09374 62.5448 6.92526 62.3789 6.71655 62.3789C6.50784 62.3789 6.33936 62.5448 6.33936 62.7504Z" fill="black"/>
<path d="M8.88428 62.7504V69.437C8.88428 69.6426 9.05276 69.8085 9.26147 69.8085C9.47018 69.8085 9.63866 69.6426 9.63866 69.437V62.7504C9.63866 62.5448 9.47018 62.3789 9.26147 62.3789C9.05276 62.3789 8.88428 62.5448 8.88428 62.7504Z" fill="black"/>
<path d="M11.4316 62.7504V69.437C11.4316 69.6426 11.6001 69.8085 11.8088 69.8085C12.0175 69.8085 12.186 69.6426 12.186 69.437V62.7504C12.186 62.5448 12.0175 62.3789 11.8088 62.3789C11.6001 62.3789 11.4316 62.5448 11.4316 62.7504Z" fill="black"/>
<path d="M13.9761 62.7504V69.437C13.9761 69.6426 14.1446 69.8085 14.3533 69.8085C14.562 69.8085 14.7305 69.6426 14.7305 69.437V62.7504C14.7305 62.5448 14.562 62.3789 14.3533 62.3789C14.1446 62.3789 13.9761 62.5448 13.9761 62.7504Z" fill="black"/>
<path d="M16.6794 49.1299H7.65942C7.45071 49.1299 7.28223 49.2958 7.28223 49.5014C7.28223 49.7069 7.45071 49.8728 7.65942 49.8728H16.6794C16.8881 49.8728 17.0566 49.7069 17.0566 49.5014C17.0566 49.2958 16.8881 49.1299 16.6794 49.1299Z" fill="black"/>
<path d="M8.4768 48.5103C8.68552 48.5103 8.854 48.3444 8.854 48.1388V43.0619C8.854 42.8564 8.68552 42.6904 8.4768 42.6904C8.26809 42.6904 8.09961 42.8564 8.09961 43.0619V48.1388C8.09961 48.3444 8.26809 48.5103 8.4768 48.5103Z" fill="black"/>
<path d="M10.3152 48.5103C10.5239 48.5103 10.6924 48.3444 10.6924 48.1388V43.0619C10.6924 42.8564 10.5239 42.6904 10.3152 42.6904C10.1065 42.6904 9.93799 42.8564 9.93799 43.0619V48.1388C9.93799 48.3444 10.1065 48.5103 10.3152 48.5103Z" fill="black"/>
<path d="M12.1531 48.5103C12.3618 48.5103 12.5303 48.3444 12.5303 48.1388V43.0619C12.5303 42.8564 12.3618 42.6904 12.1531 42.6904C11.9444 42.6904 11.7759 42.8564 11.7759 43.0619V48.1388C11.7759 48.3444 11.9444 48.5103 12.1531 48.5103Z" fill="black"/>
<path d="M13.9939 48.5103C14.2026 48.5103 14.3711 48.3444 14.3711 48.1388V43.0619C14.3711 42.8564 14.2026 42.6904 13.9939 42.6904C13.7852 42.6904 13.6167 42.8564 13.6167 43.0619V48.1388C13.6167 48.3444 13.7852 48.5103 13.9939 48.5103Z" fill="black"/>
<path d="M15.8323 48.5103C16.041 48.5103 16.2095 48.3444 16.2095 48.1388V43.0619C16.2095 42.8564 16.041 42.6904 15.8323 42.6904C15.6236 42.6904 15.4551 42.8564 15.4551 43.0619V48.1388C15.4551 48.3444 15.6236 48.5103 15.8323 48.5103Z" fill="black"/>
<path d="M8.98956 38.9609H7.88061C7.6719 38.9609 7.50342 39.1269 7.50342 39.3324C7.50342 39.538 7.6719 39.7039 7.88061 39.7039H8.98956C9.19827 39.7039 9.36675 39.538 9.36675 39.3324C9.36675 39.1269 9.19827 38.9609 8.98956 38.9609Z" fill="black"/>
<path d="M11.9095 38.9609H10.8005C10.5918 38.9609 10.4233 39.1269 10.4233 39.3324C10.4233 39.538 10.5918 39.7039 10.8005 39.7039H11.9095C12.1182 39.7039 12.2867 39.538 12.2867 39.3324C12.2867 39.1269 12.1182 38.9609 11.9095 38.9609Z" fill="black"/>
<path d="M14.8314 38.9609H13.7224C13.5137 38.9609 13.3452 39.1269 13.3452 39.3324C13.3452 39.538 13.5137 39.7039 13.7224 39.7039H14.8314C15.0401 39.7039 15.2085 39.538 15.2085 39.3324C15.2085 39.1269 15.0401 38.9609 14.8314 38.9609Z" fill="black"/>
<path d="M17.7508 38.9609H16.6418C16.4331 38.9609 16.2646 39.1269 16.2646 39.3324C16.2646 39.538 16.4331 39.7039 16.6418 39.7039H17.7508C17.9595 39.7039 18.128 39.538 18.128 39.3324C18.128 39.1269 17.9595 38.9609 17.7508 38.9609Z" fill="black"/>
<path d="M20.6727 38.9609H19.5637C19.355 38.9609 19.1865 39.1269 19.1865 39.3324C19.1865 39.538 19.355 39.7039 19.5637 39.7039H20.6727C20.8814 39.7039 21.0499 39.538 21.0499 39.3324C21.0499 39.1269 20.8814 38.9609 20.6727 38.9609Z" fill="black"/>
<path d="M19.5 11L18 10H25L23.5 11H19.5Z" fill="#FEC72F"/>
<path d="M21.49 35.6025C21.49 35.6025 21.4975 35.6025 21.5 35.6025C21.5026 35.6025 21.5076 35.6025 21.5101 35.6025C21.7188 35.6025 21.8873 35.4366 21.8873 35.2311V33.8393C21.8873 33.6337 21.7188 33.4678 21.5101 33.4678C21.5076 33.4678 21.5026 33.4678 21.5 33.4678C21.4975 33.4678 21.4925 33.4678 21.49 33.4678C21.2813 33.4678 21.1128 33.6337 21.1128 33.8393V35.2311C21.1128 35.4366 21.2813 35.6025 21.49 35.6025Z" fill="black"/>
<path d="M42.6228 73.568H41.4082V60.3607H42.2884C42.4166 60.3607 42.5348 60.2963 42.6052 60.1898C42.6756 60.0833 42.6857 59.9496 42.6329 59.8356L41.4585 57.2774C41.3982 57.1436 41.2624 57.0594 41.114 57.0594H38.4737V54.417H39.0194C39.2281 54.417 39.3965 54.251 39.3965 54.0455V52.7255C39.3965 52.5199 39.2281 52.354 39.0194 52.354H37.6589L36.7964 50.6576V41.7619L37.503 40.5261C37.5684 40.4121 37.5684 40.271 37.5005 40.1571C37.4326 40.0431 37.3094 39.9738 37.1761 39.9738H36.7989V38.3343C36.7989 38.1288 36.6305 37.9628 36.4218 37.9628H36.0018V30.9666C36.0018 30.7611 35.8333 30.5951 35.6246 30.5951H34.9432V28.5C34.9432 28.2944 34.7747 28.1285 34.566 28.1285H34.2416V22.5885C34.2416 22.3829 34.0731 22.217 33.8644 22.217H33.5299V20.6097C33.5299 20.4042 33.3615 20.2383 33.1527 20.2383H32.7756V16.2337C32.7756 16.0282 32.6071 15.8622 32.3984 15.8622H32.1042V14.7701C32.1042 14.5645 31.9357 14.3986 31.727 14.3986H31.2869V11.345C31.2869 11.1395 31.1184 10.9735 30.9097 10.9735H30.7211V10.1984C30.7211 9.99283 30.5526 9.8269 30.3439 9.8269H29.9416V3.39286C30.1352 3.10558 30.6155 2.29575 30.4948 1.45125C30.4395 1.06739 30.271 0.728102 29.9944 0.4433C29.9114 0.346715 29.8184 0.262513 29.7077 0.19317C29.7077 0.19317 29.7027 0.188217 29.7002 0.188217C29.67 0.165928 29.6373 0.151069 29.6046 0.138686C29.4361 0.0544838 29.2501 0.00247654 29.0489 0.00247654C28.3674 0.00247654 27.8117 0.549792 27.8117 1.22093C27.8117 1.4463 27.8796 1.6568 27.9877 1.83759C27.9902 1.84502 27.9927 1.85245 27.9953 1.8574C28.1386 2.12487 28.1512 2.35023 28.033 2.54093C27.862 2.8183 27.4571 2.9867 27.1629 2.9867H27.0372V2.65485C27.1881 2.46168 27.437 2.06543 27.3767 1.63452C27.354 1.46363 27.2711 1.23084 27.0296 1.02776C26.9844 0.339286 26.6776 0.00247654 26.0967 0.00247654C25.5158 0.00247654 25.2116 0.339286 25.1638 1.02776C24.9224 1.23084 24.8419 1.46363 24.8168 1.63452C24.7564 2.06543 25.0054 2.4592 25.1563 2.65485V2.9867H24.0599V2.65485C24.2108 2.46168 24.4597 2.06543 24.3994 1.63452C24.3767 1.46363 24.2937 1.23084 24.0523 1.02776C24.0071 0.339286 23.7003 0.00247654 23.1194 0.00247654C22.5385 0.00247654 22.2343 0.339286 22.1865 1.02776C21.9451 1.23084 21.8646 1.46363 21.8395 1.63452C21.7791 2.06543 22.0306 2.4592 22.1789 2.65485V2.9867H21.4975C21.4975 2.9867 21.4899 2.9867 21.4874 2.9867C21.4849 2.9867 21.4799 2.9867 21.4774 2.9867H20.7959V2.65485C20.9468 2.46168 21.1957 2.06543 21.1354 1.63452C21.1127 1.46363 21.0298 1.23084 20.7884 1.02776C20.7431 0.339286 20.4363 0.00247654 19.8554 0.00247654C19.2746 0.00247654 18.9703 0.339286 18.9225 1.02776C18.6811 1.23084 18.6006 1.46363 18.5755 1.63452C18.5151 2.06543 18.7666 2.4592 18.915 2.65485V2.9867H17.8186V2.65485C17.9695 2.46168 18.2184 2.06543 18.1581 1.63452C18.1354 1.46363 18.0525 1.23084 17.8111 1.02776C17.7658 0.339286 17.459 0.00247654 16.8781 0.00247654C16.2973 0.00247654 15.993 0.339286 15.9452 1.02776C15.7038 1.23084 15.6233 1.46363 15.5982 1.63452C15.5378 2.06543 15.7893 2.4592 15.9377 2.65485V2.9867H15.8119C15.5177 2.9867 15.1104 2.82078 14.9419 2.54093C14.8237 2.34776 14.8363 2.12487 14.9821 1.8574C14.9871 1.84997 14.9871 1.84254 14.9922 1.83511C15.1003 1.65433 15.1682 1.44382 15.1682 1.21846C15.1682 0.547315 14.6125 0 13.931 0C13.7298 0 13.5437 0.0520073 13.3753 0.13621C13.3426 0.148592 13.3099 0.163452 13.2797 0.18574C13.2772 0.18574 13.2747 0.190693 13.2722 0.190693C13.164 0.25756 13.0685 0.344239 12.9855 0.440824C12.7089 0.728102 12.5404 1.06491 12.4876 1.44877C12.3669 2.29327 12.8472 3.1031 13.0408 3.39038V9.82195H12.6385C12.4298 9.82195 12.2613 9.98788 12.2613 10.1934V10.9686H12.0727C11.864 10.9686 11.6955 11.1345 11.6955 11.3401V14.3936H11.2554C11.0467 14.3936 10.8782 14.5596 10.8782 14.7651V15.8573H10.584C10.3753 15.8573 10.2068 16.0232 10.2068 16.2288V20.2333H9.82965C9.62094 20.2333 9.45246 20.3992 9.45246 20.6048V22.2121H9.11801C8.9093 22.2121 8.74082 22.378 8.74082 22.5835V28.1236H8.41643C8.20772 28.1236 8.03924 28.2895 8.03924 28.495V30.5902H7.35778C7.14906 30.5902 6.98058 30.7561 6.98058 30.9617V37.9579H6.56064C6.35193 37.9579 6.18345 38.1238 6.18345 38.3294V39.9688H5.80626C5.67298 39.9688 5.54725 40.0382 5.48187 40.1521C5.41398 40.266 5.41398 40.4072 5.47936 40.5211L6.18597 41.7569V50.6526L5.32345 52.3491H3.96304C3.75433 52.3491 3.58585 52.515 3.58585 52.7205V54.0405C3.58585 54.2461 3.75433 54.412 3.96304 54.412H4.50871V57.0545H1.88596C1.7376 57.0545 1.60433 57.1412 1.54146 57.2724L0.367135 59.8307C0.314328 59.9446 0.324386 60.0783 0.394795 60.1848C0.465205 60.2913 0.583392 60.3557 0.711637 60.3557H1.59175V73.5631H0.377193C0.16848 73.5631 0 73.729 0 73.9346V75.6285C0 75.8341 0.16848 76 0.377193 76H42.6228C42.8315 76 43 75.8341 43 75.6285V73.9346C43 73.729 42.8315 73.5631 42.6228 73.5631V73.568ZM26.6977 73.568V60.3607H40.6539V73.568H26.6977ZM21.5 73.568H17.0567V57.7999H25.9408V73.568H21.4975H21.5ZM2.34614 73.568V60.3607H16.3023V73.568H2.34614ZM3.65877 59.6177C3.80713 59.2735 4.15415 59.0283 4.55649 59.0283C4.95883 59.0283 5.30585 59.271 5.45421 59.6177H3.65877ZM7.92357 59.6177C8.07193 59.2735 8.41895 59.0283 8.82129 59.0283C9.22363 59.0283 9.57064 59.271 9.71901 59.6177H7.92357ZM12.1884 59.6177C12.3367 59.2735 12.6837 59.0283 13.0861 59.0283C13.4884 59.0283 13.8354 59.271 13.9838 59.6177H12.1884ZM29.0162 59.6177C29.1646 59.2735 29.5116 59.0283 29.9139 59.0283C30.3163 59.0283 30.6633 59.271 30.8116 59.6177H29.0162ZM33.281 59.6177C33.4294 59.2735 33.7764 59.0283 34.1787 59.0283C34.5811 59.0283 34.9281 59.271 35.0764 59.6177H33.281ZM37.5458 59.6177C37.6941 59.2735 38.0412 59.0283 38.4435 59.0283C38.8458 59.0283 39.1929 59.271 39.3412 59.6177H37.5458ZM40.8726 57.8024L41.705 59.6177H40.1308C39.9573 58.8574 39.2683 58.2853 38.4435 58.2853C37.6187 58.2853 36.9297 58.8549 36.7562 59.6177H35.8635C35.69 58.8574 35.001 58.2853 34.1762 58.2853C33.3514 58.2853 32.6624 58.8549 32.4889 59.6177H31.5962C31.4227 58.8574 30.7337 58.2853 29.9089 58.2853C29.0841 58.2853 28.3951 58.8549 28.2216 59.6177H26.6902V57.8024H40.8626H40.8726ZM36.8191 52.354H25.5687V51.1157H36.1904L36.8191 52.354ZM21.5025 52.354H18.1908V42.0343H24.8118V52.354H21.5H21.5025ZM21.5025 40.7143H36.5324L36.203 41.2913H6.79953L6.47012 40.7143H21.5H21.5025ZM25.5687 50.3728V42.0343H36.0471V50.3728H25.5687ZM6.96047 42.0343H17.4389V50.3728H6.95795V42.0343H6.96047ZM35.2499 37.9579H26.5745V31.3332H35.2499V37.9579ZM24.1102 37.9579L24.3742 32.4649C24.3792 32.3634 24.3415 32.2643 24.2711 32.19C24.2007 32.1157 24.1001 32.0761 23.997 32.0761H21.5151C21.5151 32.0761 21.5075 32.0761 21.505 32.0761C21.5025 32.0761 21.4975 32.0761 21.495 32.0761H19.013C18.9099 32.0761 18.8119 32.1182 18.7389 32.19C18.6685 32.2643 18.6308 32.3634 18.6358 32.4649L18.8999 37.9579H17.1899V31.3332H25.8226V37.9579H24.1127H24.1102ZM21.5151 37.9579C21.5151 37.9579 21.5075 37.9579 21.505 37.9579C21.5025 37.9579 21.4975 37.9579 21.495 37.9579H19.6543L19.4078 32.8191H21.495C21.495 32.8191 21.5025 32.8191 21.505 32.8191C21.5075 32.8191 21.5126 32.8191 21.5151 32.8191H23.6022L23.3558 37.9579H21.5151ZM21.4975 4.71038C21.4975 4.71038 21.5 4.71038 21.5025 4.71038C21.505 4.71038 21.505 4.71038 21.5075 4.71038H21.5126C21.5176 4.71038 22.1764 4.70542 22.6089 5.12396C22.8026 5.31217 22.9258 5.56726 22.9786 5.8793H21.5075C21.5075 5.8793 21.505 5.8793 21.5025 5.8793C21.5 5.8793 21.5 5.8793 21.4975 5.8793H20.0264C20.0792 5.56726 20.2025 5.31217 20.3961 5.12396C20.8261 4.7079 21.4774 4.71038 21.4925 4.71038H21.4975ZM21.505 7.23892H20.0792L19.9988 7.09776V6.62226H21.5C21.5 6.62226 21.5025 6.62226 21.505 6.62226C21.5075 6.62226 21.5075 6.62226 21.5101 6.62226H23.0113V7.09776L22.9308 7.23892H21.505ZM20.2351 7.98188H22.7749V9.82443H21.5101C21.5101 9.82443 21.5075 9.82443 21.505 9.82443C21.5025 9.82443 21.5025 9.82443 21.5 9.82443H20.2351V7.98188ZM21.5 10.5674C21.5 10.5674 21.5025 10.5674 21.505 10.5674C21.5075 10.5674 21.5075 10.5674 21.5101 10.5674H23.6223V10.6937L23.4664 10.9711H19.5461L19.3902 10.6937V10.5674H21.5025H21.5ZM19.6995 11.714H23.3105V14.3961H22.9736V12.7789C22.9736 12.5734 22.8051 12.4075 22.5964 12.4075H21.5151C21.5151 12.4075 21.5075 12.4075 21.505 12.4075C21.5025 12.4075 21.4975 12.4075 21.495 12.4075H20.4137C20.205 12.4075 20.0365 12.5734 20.0365 12.7789V14.3961H19.6995V11.714ZM21.5151 14.3961H21.5101C21.5101 14.3961 21.505 14.3961 21.5025 14.3961C21.5 14.3961 21.4975 14.3961 21.495 14.3961H20.7884V13.1504H21.4925C21.4925 13.1504 21.5 13.1504 21.5025 13.1504C21.505 13.1504 21.5101 13.1504 21.5126 13.1504H22.2167V14.3961H21.5126H21.5151ZM20.4137 15.1391H21.4975C21.4975 15.1391 21.5025 15.1391 21.505 15.1391C21.5075 15.1391 21.5101 15.1391 21.5126 15.1391H24.3139V15.4313L24.0725 15.8597H18.9426L18.7012 15.4313V15.1391H20.4187H20.4137ZM19.096 16.6027H23.9165V20.2358H22.9761V17.8385C22.9761 17.6329 22.8076 17.467 22.5989 17.467H21.5176C21.5176 17.467 21.5101 17.467 21.5075 17.467C21.505 17.467 21.5 17.467 21.4975 17.467H20.4162C20.2075 17.467 20.039 17.6329 20.039 17.8385V20.2358H19.0985V16.6027H19.096ZM21.5151 20.2358C21.5151 20.2358 21.5101 20.2358 21.5075 20.2358C21.505 20.2358 21.5025 20.2358 21.5 20.2358H20.7959V18.21H21.5C21.5 18.21 21.5075 18.21 21.5101 18.21C21.5126 18.21 21.5176 18.21 21.5201 18.21H22.2242V20.2358H21.5201H21.5151ZM20.4137 20.9788H21.495C21.495 20.9788 21.5 20.9788 21.5025 20.9788C21.505 20.9788 21.5075 20.9788 21.5101 20.9788H25.4278V21.5385L25.0456 22.2145H17.9569L17.5747 21.5385V20.9788H20.4112H20.4137ZM18.1153 22.9575H24.8922V28.126H22.9711V25.065C22.9711 24.8595 22.8026 24.6936 22.5939 24.6936H21.5126C21.5126 24.6936 21.505 24.6936 21.5025 24.6936C21.5 24.6936 21.495 24.6936 21.4925 24.6936H20.4112C20.2025 24.6936 20.034 24.8595 20.034 25.065V28.126H18.1128V22.9575H18.1153ZM21.5151 28.126C21.5151 28.126 21.5075 28.126 21.505 28.126C21.5025 28.126 21.4975 28.126 21.495 28.126H20.7909V25.4365H21.495C21.495 25.4365 21.5025 25.4365 21.505 25.4365C21.5075 25.4365 21.5126 25.4365 21.5151 25.4365H22.2192V28.126H21.5151ZM20.4137 28.869H21.495C21.495 28.869 21.5025 28.869 21.505 28.869C21.5075 28.869 21.5126 28.869 21.5151 28.869H26.4915V29.6813L25.976 30.5927H17.0315L16.516 29.6813V28.869H20.4112H20.4137ZM26.8411 30.5927L27.1981 29.9587C27.1981 29.9587 27.2032 29.9463 27.2057 29.9413C27.2107 29.929 27.2182 29.9166 27.2208 29.9042C27.2258 29.8943 27.2283 29.8819 27.2308 29.8695C27.2333 29.8571 27.2358 29.8472 27.2384 29.8349C27.2384 29.8225 27.2409 29.8076 27.2434 29.7952C27.2434 29.7878 27.2434 29.7828 27.2434 29.7779V28.869H34.1913V30.5927H26.8385H26.8411ZM26.8687 28.126H25.6466V22.9575H33.4897V28.126H26.8687ZM25.9106 22.2145L26.137 21.8158C26.137 21.8158 26.142 21.8034 26.1445 21.7985C26.1495 21.7861 26.1571 21.7737 26.1596 21.7613C26.1646 21.749 26.1671 21.7391 26.1696 21.7267C26.1722 21.7143 26.1747 21.7044 26.1772 21.692C26.1772 21.6796 26.1797 21.6648 26.1822 21.6524C26.1822 21.6474 26.1822 21.64 26.1822 21.635V20.9788H32.7756V22.2145H25.9081H25.9106ZM25.8075 20.2358H24.6684V16.6027H32.0237V20.2358H25.8075ZM31.3523 15.8597H24.9325L25.018 15.7087C25.018 15.7087 25.023 15.6963 25.0255 15.6913C25.0305 15.679 25.0381 15.6666 25.0406 15.6542C25.0456 15.6418 25.0481 15.6319 25.0506 15.6195C25.0532 15.6071 25.0557 15.5972 25.0582 15.5849C25.0582 15.5725 25.0607 15.5576 25.0632 15.5452C25.0632 15.5403 25.0632 15.5328 25.0632 15.5279V15.1391H31.3498V15.8597H31.3523ZM24.6885 14.3961H24.0624V11.714H30.535V14.3961H24.6885ZM29.9692 10.9711H24.3264C24.3264 10.9711 24.3315 10.9587 24.334 10.9537C24.339 10.9413 24.344 10.9314 24.3491 10.9191C24.3541 10.9067 24.3566 10.8968 24.3591 10.8844C24.3616 10.8745 24.3642 10.8621 24.3667 10.8497C24.3667 10.8373 24.3692 10.8225 24.3717 10.8101C24.3717 10.8051 24.3717 10.7977 24.3717 10.7928V10.5699H29.9667V10.9735L29.9692 10.9711ZM23.997 9.82443H23.5268V7.98188H29.1897V9.82443H23.997ZM26.0917 6.27307C26.0917 6.27307 25.8603 6.04028 25.9056 5.77281C25.9433 5.54992 26.1747 5.31465 26.5644 5.09919C26.9517 5.31465 27.183 5.54992 27.2233 5.77281C27.2685 6.04028 27.0397 6.27059 27.0397 6.27059C26.9668 6.33994 26.924 6.43652 26.924 6.53806V7.23892H26.2074V6.53806C26.2074 6.439 26.1646 6.34241 26.0942 6.27307H26.0917ZM29.0564 0.747914C29.1369 0.747914 29.2098 0.767727 29.2752 0.802398C29.3456 0.854406 29.406 0.908889 29.4613 0.968326C29.5091 1.04262 29.5392 1.1293 29.5392 1.22341C29.5392 1.48592 29.323 1.69891 29.0564 1.69891C28.7899 1.69891 28.5736 1.48592 28.5736 1.22341C28.5736 0.960897 28.7899 0.747914 29.0564 0.747914ZM25.8251 2.27099C25.7346 2.17192 25.5536 1.91436 25.5787 1.73605C25.5837 1.70633 25.5938 1.62956 25.7447 1.53793C25.8578 1.47106 25.9257 1.34971 25.9257 1.22093C25.9257 0.8445 26.0012 0.755344 25.9987 0.755344C26.0087 0.750391 26.0339 0.745438 26.1093 0.745438C26.1847 0.745438 26.2124 0.750391 26.2149 0.750391C26.2149 0.750391 26.2929 0.83707 26.2929 1.22093C26.2929 1.34971 26.3608 1.47106 26.4739 1.53793C26.6248 1.62956 26.6374 1.70633 26.6399 1.73605C26.665 1.91189 26.484 2.17192 26.3934 2.26851C26.3281 2.33785 26.2929 2.42701 26.2929 2.52112V2.9867H25.9257V2.52112C25.9257 2.42701 25.888 2.33785 25.8251 2.26851V2.27099ZM22.8529 2.27099C22.7623 2.17192 22.5813 1.91436 22.6064 1.73605C22.6115 1.70633 22.6215 1.62956 22.7724 1.53793C22.8856 1.47106 22.9534 1.34971 22.9534 1.22093C22.9534 0.8445 23.0289 0.755344 23.0264 0.755344C23.0364 0.750391 23.0616 0.745438 23.137 0.745438C23.2125 0.745438 23.2376 0.750391 23.2426 0.750391C23.2426 0.750391 23.3206 0.83707 23.3206 1.22093C23.3206 1.34971 23.3885 1.47106 23.5016 1.53793C23.6525 1.62956 23.6651 1.70633 23.6676 1.73605C23.6927 1.91189 23.5117 2.17192 23.4212 2.26851C23.3558 2.33785 23.3206 2.42701 23.3206 2.52112V2.9867H22.9534V2.52112C22.9534 2.42701 22.9157 2.33785 22.8529 2.26851V2.27099ZM19.5914 2.27099C19.5009 2.17192 19.3198 1.91436 19.345 1.73605C19.35 1.70633 19.3601 1.62956 19.5109 1.53793C19.6241 1.47106 19.692 1.34971 19.692 1.22093C19.692 0.8445 19.7674 0.755344 19.7649 0.755344C19.775 0.750391 19.8001 0.745438 19.8756 0.745438C19.951 0.745438 19.9761 0.750391 19.9812 0.750391C19.9812 0.750391 20.0591 0.83707 20.0591 1.22093C20.0591 1.34971 20.127 1.47106 20.2402 1.53793C20.3911 1.62956 20.4036 1.70633 20.4061 1.73605C20.4313 1.91189 20.2502 2.17192 20.1597 2.26851C20.0943 2.33785 20.0591 2.42701 20.0591 2.52112V2.9867H19.692V2.52112C19.692 2.42701 19.6543 2.33785 19.5914 2.26851V2.27099ZM16.6191 2.27099C16.5286 2.17192 16.3475 1.91436 16.3727 1.73605C16.3777 1.70633 16.3878 1.62956 16.5387 1.53793C16.6518 1.47106 16.7197 1.34971 16.7197 1.22093C16.7197 0.8445 16.7951 0.755344 16.7926 0.755344C16.8027 0.750391 16.8278 0.745438 16.9033 0.745438C16.9787 0.745438 17.0039 0.750391 17.0089 0.750391C17.0089 0.750391 17.0868 0.83707 17.0868 1.22093C17.0868 1.34971 17.1547 1.47106 17.2679 1.53793C17.4188 1.62956 17.4313 1.70633 17.4339 1.73605C17.459 1.91189 17.278 2.17192 17.1874 2.26851C17.122 2.33785 17.0868 2.42701 17.0868 2.52112V2.9867H16.7197V2.52112C16.7197 2.42701 16.682 2.33785 16.6191 2.26851V2.27099ZM15.8396 3.73214H21.4975C21.4975 3.73214 21.505 3.73214 21.5075 3.73214C21.5101 3.73214 21.5151 3.73214 21.5176 3.73214H27.1755C27.6684 3.73214 28.3549 3.47954 28.6918 2.92727C28.7874 2.76877 28.8477 2.59789 28.8678 2.41958C28.9307 2.42948 28.9936 2.43939 29.0564 2.43939C29.2802 2.43939 29.4889 2.375 29.67 2.27346C29.5267 2.70933 29.2727 3.04862 29.2702 3.05357C29.2199 3.11796 29.1922 3.19721 29.1922 3.27894V7.2414H27.6784V6.67922C27.8243 6.49348 28.043 6.12696 27.9701 5.66632C27.8871 5.1512 27.4722 4.7079 26.7329 4.35128C26.7254 4.34632 26.7178 4.34632 26.7103 4.34385C26.6977 4.33889 26.6877 4.33394 26.6751 4.33146C26.6625 4.32899 26.6499 4.32651 26.6374 4.32404C26.6248 4.32404 26.6147 4.31908 26.6022 4.31908C26.5896 4.31908 26.5795 4.31908 26.567 4.31908C26.5544 4.31908 26.5418 4.31908 26.5267 4.31908C26.5167 4.31908 26.5066 4.32156 26.494 4.32404C26.4815 4.32404 26.4664 4.32899 26.4538 4.33394C26.4437 4.33642 26.4312 4.34137 26.4211 4.34632C26.4136 4.3488 26.4035 4.35128 26.396 4.35623C25.6567 4.71285 25.2418 5.15615 25.1588 5.67127C25.0858 6.13438 25.3046 6.49844 25.4505 6.68418V7.24635H23.7606C23.7606 7.24635 23.7606 7.23644 23.7606 7.23149C23.7606 7.22158 23.7632 7.21168 23.7632 7.20177V6.25821C23.7632 5.55735 23.5494 4.99765 23.1295 4.59645C22.4882 3.98227 21.5981 3.97484 21.5025 3.97732C21.4044 3.97484 20.5168 3.98227 19.8756 4.59645C19.4556 5.00013 19.2419 5.55983 19.2419 6.25821V7.20177C19.2419 7.20177 19.2419 7.22158 19.2444 7.23149C19.2444 7.23644 19.2444 7.2414 19.2444 7.24635H17.5546V6.68418C17.7004 6.49844 17.9192 6.13191 17.8463 5.67127C17.7633 5.15615 17.3484 4.71285 16.6091 4.35623C16.6015 4.35128 16.594 4.35128 16.5864 4.3488C16.5764 4.34385 16.5638 4.33889 16.5537 4.33642C16.5412 4.33147 16.5286 4.32899 16.516 4.32651C16.506 4.32651 16.4934 4.32156 16.4833 4.32156C16.4708 4.32156 16.4582 4.32156 16.4456 4.32156C16.433 4.32156 16.423 4.32156 16.4104 4.32156C16.3978 4.32156 16.3853 4.32404 16.3727 4.32651C16.3601 4.32651 16.3501 4.33146 16.3375 4.33394C16.3249 4.33642 16.3123 4.34137 16.3023 4.34632C16.2947 4.3488 16.2872 4.35128 16.2796 4.35375C15.5403 4.71037 15.1254 5.15368 15.0425 5.6688C14.9695 6.13191 15.1883 6.49596 15.3342 6.6817V7.24387H13.8204V3.27646C13.8204 3.19473 13.7927 3.11548 13.7424 3.0511C13.7374 3.04614 13.4859 2.70686 13.3426 2.27346C13.5236 2.375 13.7298 2.43939 13.9536 2.43939C14.019 2.43939 14.0819 2.42948 14.1422 2.41958C14.1649 2.59789 14.2227 2.76877 14.3182 2.92727C14.6552 3.47954 15.3417 3.73214 15.8346 3.73214H15.8396ZM16.0911 7.2414V6.54054C16.0911 6.44148 16.0483 6.34489 15.9779 6.27555C15.9779 6.27555 15.7465 6.04275 15.7918 5.77529C15.8295 5.5524 16.0609 5.31713 16.4506 5.10167C16.8379 5.31713 17.0718 5.5524 17.1095 5.77529C17.1547 6.04275 16.9259 6.27307 16.9259 6.27307C16.853 6.34241 16.8102 6.439 16.8102 6.54054V7.2414H16.0936H16.0911ZM14.4389 1.22341C14.4389 1.48592 14.2227 1.69891 13.9561 1.69891C13.6896 1.69891 13.4733 1.48592 13.4733 1.22341C13.4733 1.1293 13.501 1.04262 13.5513 0.968326C13.6066 0.911366 13.667 0.856882 13.7374 0.802398C13.8027 0.767727 13.8782 0.747914 13.9561 0.747914C14.2227 0.747914 14.4389 0.960897 14.4389 1.22341ZM13.8229 7.98436H19.4858V9.8269H13.8229V7.98436ZM13.0433 10.5699H18.6384V10.7928C18.6384 10.7928 18.6384 10.8051 18.6384 10.8101C18.6384 10.8225 18.6384 10.8373 18.6434 10.8497C18.6434 10.8621 18.6484 10.872 18.6509 10.8844C18.6534 10.8968 18.6585 10.9067 18.661 10.9191C18.666 10.9314 18.6711 10.9438 18.6761 10.9537C18.6786 10.9587 18.6811 10.9661 18.6836 10.9711H13.0408V10.5674L13.0433 10.5699ZM12.4775 11.7165H18.9502V14.3986H12.4775V11.7165ZM11.6603 15.1416H17.9468V15.5304C17.9468 15.5304 17.9468 15.5428 17.9468 15.5502C17.9468 15.5626 17.9468 15.5774 17.9519 15.5898C17.9519 15.6022 17.9569 15.6146 17.9594 15.6245C17.9619 15.6369 17.967 15.6468 17.9695 15.6591C17.9745 15.6715 17.9795 15.6839 17.9846 15.6963C17.9871 15.7013 17.9896 15.7087 17.9921 15.7136L18.0776 15.8647H11.6578V15.144L11.6603 15.1416ZM10.9889 16.6052H18.3442V20.2383H10.9889V16.6052ZM10.2345 20.9812H16.8278V21.6375C16.8278 21.6375 16.8278 21.6499 16.8278 21.6548C16.8278 21.6672 16.8278 21.6821 16.8329 21.6945C16.8329 21.7069 16.8379 21.7192 16.8404 21.7291C16.8429 21.7415 16.848 21.7514 16.8505 21.7638C16.8555 21.7762 16.8605 21.7886 16.8656 21.801C16.8681 21.8059 16.8706 21.8133 16.8731 21.8183L17.0994 22.217H10.232V20.9812H10.2345ZM9.52287 22.96H17.366V28.1285H9.52287V22.96ZM8.82129 28.8715H15.7692V29.7804C15.7692 29.7804 15.7692 29.7928 15.7692 29.7977C15.7692 29.8101 15.7692 29.8249 15.7742 29.8373C15.7742 29.8497 15.7792 29.8596 15.7818 29.872C15.7843 29.8844 15.7893 29.8943 15.7918 29.9067C15.7968 29.9191 15.8019 29.9314 15.8069 29.9438C15.8094 29.9488 15.8119 29.9562 15.8144 29.9612L16.174 30.5951H8.82129V28.8715ZM7.76263 31.3381H16.4381V37.9628H7.75257V31.3381H7.76263ZM6.9655 38.7058H21.4975C21.4975 38.7058 21.505 38.7058 21.5075 38.7058C21.5101 38.7058 21.5151 38.7058 21.5176 38.7058H36.0496V39.9738H6.95795V38.7058H6.9655ZM6.82216 51.1182H17.4439V52.3565H6.18345L6.81211 51.1182H6.82216ZM4.36789 53.6765V53.0994H38.6497V53.6765H4.35784H4.36789ZM21.5101 54.4194H37.7294V57.0619H5.2807V54.4194H21.5H21.5101ZM2.13994 57.8049H16.3123V59.6202H14.7809C14.6074 58.8599 13.9184 58.2878 13.0936 58.2878C12.2688 58.2878 11.5798 58.8574 11.4063 59.6202H10.5136C10.3401 58.8599 9.65111 58.2878 8.82631 58.2878C8.00152 58.2878 7.31251 58.8574 7.13901 59.6202H6.24632C6.07281 58.8599 5.3838 58.2878 4.55901 58.2878C3.73421 58.2878 3.0452 58.8574 2.8717 59.6202H1.29754L2.12988 57.8049H2.13994ZM42.2557 75.2645H0.754386V74.3135H42.2456V75.2645H42.2557Z" fill="black"/>
<path d="M36.6931 56.653C36.9018 56.653 37.0703 56.4871 37.0703 56.2815V55.1869C37.0703 54.9814 36.9018 54.8154 36.6931 54.8154C36.4844 54.8154 36.3159 54.9814 36.3159 55.1869V56.2815C36.3159 56.4871 36.4844 56.653 36.6931 56.653Z" fill="black"/>
<path d="M34.5232 56.653C34.7319 56.653 34.9004 56.4871 34.9004 56.2815V55.1869C34.9004 54.9814 34.7319 54.8154 34.5232 54.8154C34.3145 54.8154 34.146 54.9814 34.146 55.1869V56.2815C34.146 56.4871 34.3145 56.653 34.5232 56.653Z" fill="black"/>
<path d="M32.3557 56.653C32.5644 56.653 32.7329 56.4871 32.7329 56.2815V55.1869C32.7329 54.9814 32.5644 54.8154 32.3557 54.8154C32.147 54.8154 31.9785 54.9814 31.9785 55.1869V56.2815C31.9785 56.4871 32.147 56.653 32.3557 56.653Z" fill="black"/>
<path d="M30.1853 56.653C30.394 56.653 30.5625 56.4871 30.5625 56.2815V55.1869C30.5625 54.9814 30.394 54.8154 30.1853 54.8154C29.9766 54.8154 29.8081 54.9814 29.8081 55.1869V56.2815C29.8081 56.4871 29.9766 56.653 30.1853 56.653Z" fill="black"/>
<path d="M28.0178 56.653C28.2265 56.653 28.395 56.4871 28.395 56.2815V55.1869C28.395 54.9814 28.2265 54.8154 28.0178 54.8154C27.8091 54.8154 27.6406 54.9814 27.6406 55.1869V56.2815C27.6406 56.4871 27.8091 56.653 28.0178 56.653Z" fill="black"/>
<path d="M25.8479 56.653C26.0566 56.653 26.2251 56.4871 26.2251 56.2815V55.1869C26.2251 54.9814 26.0566 54.8154 25.8479 54.8154C25.6392 54.8154 25.4707 54.9814 25.4707 55.1869V56.2815C25.4707 56.4871 25.6392 56.653 25.8479 56.653Z" fill="black"/>
<path d="M23.6804 56.653C23.8891 56.653 24.0576 56.4871 24.0576 56.2815V55.1869C24.0576 54.9814 23.8891 54.8154 23.6804 54.8154C23.4717 54.8154 23.3032 54.9814 23.3032 55.1869V56.2815C23.3032 56.4871 23.4717 56.653 23.6804 56.653Z" fill="black"/>
<path d="M39.8366 71.9141H27.5779C27.3692 71.9141 27.2007 72.08 27.2007 72.2855C27.2007 72.4911 27.3692 72.657 27.5779 72.657H39.8366C40.0454 72.657 40.2138 72.4911 40.2138 72.2855C40.2138 72.08 40.0454 71.9141 39.8366 71.9141Z" fill="black"/>
<path d="M39.8366 70.2744H27.5779C27.3692 70.2744 27.2007 70.4403 27.2007 70.6459C27.2007 70.8514 27.3692 71.0174 27.5779 71.0174H39.8366C40.0454 71.0174 40.2138 70.8514 40.2138 70.6459C40.2138 70.4403 40.0454 70.2744 39.8366 70.2744Z" fill="black"/>
<path d="M27.5779 61.9461H39.8366C40.0454 61.9461 40.2138 61.7802 40.2138 61.5746C40.2138 61.3691 40.0454 61.2031 39.8366 61.2031H27.5779C27.3692 61.2031 27.2007 61.3691 27.2007 61.5746C27.2007 61.7802 27.3692 61.9461 27.5779 61.9461Z" fill="black"/>
<path d="M35.9062 62.7504V69.437C35.9062 69.6426 36.0747 69.8085 36.2834 69.8085C36.4922 69.8085 36.6606 69.6426 36.6606 69.437V62.7504C36.6606 62.5448 36.4922 62.3789 36.2834 62.3789C36.0747 62.3789 35.9062 62.5448 35.9062 62.7504Z" fill="black"/>
<path d="M33.3613 62.7504V69.437C33.3613 69.6426 33.5298 69.8085 33.7385 69.8085C33.9472 69.8085 34.1157 69.6426 34.1157 69.437V62.7504C34.1157 62.5448 33.9472 62.3789 33.7385 62.3789C33.5298 62.3789 33.3613 62.5448 33.3613 62.7504Z" fill="black"/>
<path d="M30.814 62.7504V69.437C30.814 69.6426 30.9824 69.8085 31.1912 69.8085C31.3999 69.8085 31.5684 69.6426 31.5684 69.437V62.7504C31.5684 62.5448 31.3999 62.3789 31.1912 62.3789C30.9824 62.3789 30.814 62.5448 30.814 62.7504Z" fill="black"/>
<path d="M28.2695 62.7504V69.437C28.2695 69.6426 28.438 69.8085 28.6467 69.8085C28.8554 69.8085 29.0239 69.6426 29.0239 69.437V62.7504C29.0239 62.5448 28.8554 62.3789 28.6467 62.3789C28.438 62.3789 28.2695 62.5448 28.2695 62.7504Z" fill="black"/>
<path d="M35.3405 49.1299H26.3206C26.1118 49.1299 25.9434 49.2958 25.9434 49.5014C25.9434 49.7069 26.1118 49.8728 26.3206 49.8728H35.3405C35.5492 49.8728 35.7177 49.7069 35.7177 49.5014C35.7177 49.2958 35.5492 49.1299 35.3405 49.1299Z" fill="black"/>
<path d="M34.5232 48.5103C34.7319 48.5103 34.9004 48.3444 34.9004 48.1388V43.0619C34.9004 42.8564 34.7319 42.6904 34.5232 42.6904C34.3145 42.6904 34.146 42.8564 34.146 43.0619V48.1388C34.146 48.3444 34.3145 48.5103 34.5232 48.5103Z" fill="black"/>
<path d="M32.6848 48.5103C32.8935 48.5103 33.062 48.3444 33.062 48.1388V43.0619C33.062 42.8564 32.8935 42.6904 32.6848 42.6904C32.4761 42.6904 32.3076 42.8564 32.3076 43.0619V48.1388C32.3076 48.3444 32.4761 48.5103 32.6848 48.5103Z" fill="black"/>
<path d="M30.8469 48.5103C31.0556 48.5103 31.2241 48.3444 31.2241 48.1388V43.0619C31.2241 42.8564 31.0556 42.6904 30.8469 42.6904C30.6382 42.6904 30.4697 42.8564 30.4697 43.0619V48.1388C30.4697 48.3444 30.6382 48.5103 30.8469 48.5103Z" fill="black"/>
<path d="M29.0061 48.5103C29.2148 48.5103 29.3833 48.3444 29.3833 48.1388V43.0619C29.3833 42.8564 29.2148 42.6904 29.0061 42.6904C28.7974 42.6904 28.6289 42.8564 28.6289 43.0619V48.1388C28.6289 48.3444 28.7974 48.5103 29.0061 48.5103Z" fill="black"/>
<path d="M27.1677 48.5103C27.3764 48.5103 27.5449 48.3444 27.5449 48.1388V43.0619C27.5449 42.8564 27.3764 42.6904 27.1677 42.6904C26.959 42.6904 26.7905 42.8564 26.7905 43.0619V48.1388C26.7905 48.3444 26.959 48.5103 27.1677 48.5103Z" fill="black"/>
<path d="M34.01 39.7039H35.119C35.3277 39.7039 35.4961 39.538 35.4961 39.3324C35.4961 39.1269 35.3277 38.9609 35.119 38.9609H34.01C33.8013 38.9609 33.6328 39.1269 33.6328 39.3324C33.6328 39.538 33.8013 39.7039 34.01 39.7039Z" fill="black"/>
<path d="M31.0906 39.7039H32.1995C32.4082 39.7039 32.5767 39.538 32.5767 39.3324C32.5767 39.1269 32.4082 38.9609 32.1995 38.9609H31.0906C30.8819 38.9609 30.7134 39.1269 30.7134 39.3324C30.7134 39.538 30.8819 39.7039 31.0906 39.7039Z" fill="black"/>
<path d="M28.1687 39.7039H29.2776C29.4864 39.7039 29.6548 39.538 29.6548 39.3324C29.6548 39.1269 29.4864 38.9609 29.2776 38.9609H28.1687C27.96 38.9609 27.7915 39.1269 27.7915 39.3324C27.7915 39.538 27.96 39.7039 28.1687 39.7039Z" fill="black"/>
<path d="M25.2493 39.7039H26.3582C26.5669 39.7039 26.7354 39.538 26.7354 39.3324C26.7354 39.1269 26.5669 38.9609 26.3582 38.9609H25.2493C25.0405 38.9609 24.8721 39.1269 24.8721 39.3324C24.8721 39.538 25.0405 39.7039 25.2493 39.7039Z" fill="black"/>
<path d="M22.3274 39.7039H23.4363C23.645 39.7039 23.8135 39.538 23.8135 39.3324C23.8135 39.1269 23.645 38.9609 23.4363 38.9609H22.3274C22.1187 38.9609 21.9502 39.1269 21.9502 39.3324C21.9502 39.538 22.1187 39.7039 22.3274 39.7039Z" fill="black"/>
<path d="M22.8125 33.3446C22.6063 33.3248 22.4203 33.4709 22.3976 33.674L22.1261 36.2198H21.51C21.51 36.2198 21.5024 36.2198 21.4999 36.2198C21.4974 36.2198 21.4924 36.2198 21.4899 36.2198H20.8738L20.6022 33.674C20.5796 33.4709 20.3935 33.3248 20.1873 33.3446C19.9811 33.3669 19.8302 33.5501 19.8528 33.7532L20.1621 36.6309C20.1822 36.8192 20.3432 36.9628 20.5368 36.9628H21.1202V37.1386C21.1202 37.1386 21.1252 37.1584 21.1277 37.1708C21.1277 37.1832 21.1277 37.1956 21.1328 37.208C21.1328 37.2204 21.1403 37.2303 21.1428 37.2426C21.1453 37.255 21.1504 37.2649 21.1554 37.2773C21.1604 37.2872 21.1655 37.2996 21.173 37.3095C21.178 37.3194 21.1831 37.3318 21.1906 37.3417C21.1982 37.3516 21.2057 37.359 21.2132 37.3689C21.2208 37.3789 21.2283 37.3888 21.2384 37.3962C21.2459 37.4036 21.256 37.411 21.2635 37.4185C21.2736 37.4259 21.2837 37.4358 21.2937 37.4432C21.3038 37.4507 21.3138 37.4531 21.3239 37.4606C21.3339 37.468 21.3465 37.473 21.3591 37.4779C21.3692 37.4829 21.3817 37.4853 21.3918 37.4878C21.4044 37.4928 21.4169 37.4953 21.4295 37.4977C21.4421 37.5002 21.4546 37.5002 21.4672 37.5027C21.4798 37.5027 21.4899 37.5076 21.5024 37.5076H21.515C21.515 37.5076 21.5376 37.5052 21.5502 37.5027C21.5628 37.5027 21.5753 37.5027 21.5879 37.4977C21.6005 37.4953 21.6131 37.4903 21.6256 37.4878C21.6357 37.4853 21.6483 37.4804 21.6583 37.4779C21.6709 37.473 21.681 37.4655 21.6935 37.4606C21.7036 37.4556 21.7137 37.4507 21.7237 37.4432C21.7338 37.4358 21.7438 37.4284 21.7539 37.4185C21.7614 37.411 21.7715 37.4036 21.779 37.3962C21.7891 37.3863 21.7941 37.3764 21.8042 37.3689C21.8117 37.359 21.8193 37.3516 21.8268 37.3417C21.8344 37.3318 21.8394 37.3219 21.8444 37.3095C21.8494 37.2996 21.857 37.2897 21.862 37.2773C21.867 37.2674 21.8696 37.255 21.8746 37.2426C21.8771 37.2303 21.8821 37.2204 21.8846 37.208C21.8846 37.1956 21.8872 37.1832 21.8897 37.1708C21.8897 37.1609 21.8922 37.151 21.8922 37.1386V36.9628H22.4781C22.6717 36.9628 22.8327 36.8192 22.8528 36.6309L23.1621 33.7532C23.1847 33.5501 23.0338 33.3669 22.8276 33.3446H22.8125Z" fill="black"/>
<path d="M21.5099 14.3932H21.5049C21.5049 14.3932 21.4999 14.3932 21.4974 14.3932C21.4948 14.3932 21.4923 14.3932 21.4898 14.3932H20.7832V13.1475H21.4873C21.4873 13.1475 21.4948 13.1475 21.4974 13.1475C21.4999 13.1475 21.5049 13.1475 21.5074 13.1475H22.2115V14.3932H21.5074H21.5099Z" fill="white"/>
</g>
<defs>
<clipPath id="clip0_487_9219">
<rect width="43" height="76" fill="white"/>
</clipPath>
</defs>
</svg>
